<svg preserveAspectRatio="none" overflow="visible" style="display: block;" width="850" height="709.294" viewBox="0 0 850 709.294" fill="none" xmlns="http://www.w3.org/2000/svg">
<g id="Official NOVE symbol / alpha mask" clip-path="url(#clip0_0_8)">
<path id="Union" d="M293.07 249.223C309.222 281.253 326.376 312.511 344.536 342.993C395.27 428.176 445.944 513.389 496.559 598.623C510.395 621.957 524.931 648.835 540.163 679.25L501.98 709.069C501.749 709.246 501.455 709.326 501.166 709.294C500.875 709.26 500.605 709.106 500.421 708.879L46.3066 167.505C46.2516 167.429 46.2217 167.339 46.2201 167.245C46.2186 167.153 46.2385 167.062 46.2892 166.985C46.3422 166.907 46.4261 166.846 46.5144 166.812C46.6013 166.78 46.7015 166.772 46.7914 166.795L293.07 249.223ZM474.844 310.091L849.406 435.499C849.551 435.553 849.686 435.639 849.785 435.758C849.887 435.877 849.95 436.022 849.977 436.175C850.002 436.324 849.996 436.483 849.941 436.624C849.887 436.764 849.785 436.881 849.665 436.971L639.042 601.843L639.06 601.861L540.163 679.25C536.356 671.648 532.609 664.259 528.89 657.1C517.726 635.616 506.938 616.125 496.559 598.623C445.944 513.389 395.27 428.176 344.536 342.993C326.376 312.511 309.238 281.253 293.087 249.223L474.844 310.091ZM491.365 65.717C495.532 73.6527 499.742 81.5601 503.989 89.4411L491.365 65.717L777.558 343.6C777.634 343.679 777.684 343.8 777.696 343.91C777.707 344.018 777.684 344.128 777.627 344.222C777.569 344.318 777.471 344.389 777.368 344.43C777.267 344.469 777.159 344.476 777.056 344.447L626.954 291.752L245.414 157.721L0.486501 71.622C0.339539 71.5715 0.209586 71.4738 0.12285 71.345C0.0364526 71.2138 -0.00945131 71.0514 0.00163224 70.8948C0.0132918 70.7373 0.0868158 70.5793 0.192116 70.4618C0.296641 70.3485 0.438631 70.2649 0.590402 70.2368L185.083 39.3263L418.427 0H424.245L491.365 65.717ZM516.855 113.009C542.807 159.959 570.176 205.924 598.97 250.902C600.286 252.963 601.857 255.356 603.68 258.089L598.97 250.902C594.172 243.407 589.421 235.89 584.701 228.339C579.981 220.787 575.299 213.208 570.657 205.601C552.091 175.176 534.157 144.312 516.855 113.009Z" fill="white"/>
</g>
<defs>
<clipPath id="clip0_0_8">
<rect width="850" height="709.294" fill="white"/>
</clipPath>
</defs>
</svg>
