<svg preserveAspectRatio="none" overflow="visible" style="display: block;" width="64" height="64" viewBox="0 0 64 64" fill="none" xmlns="http://www.w3.org/2000/svg">
<g id="Channel illustration / Web&#227;&#130;&#181;&#227;&#130;&#164;&#227;&#131;&#136;">
<path id="Vector" d="M32 62C48.5685 62 62 48.5685 62 32C62 15.4315 48.5685 2 32 2C15.4315 2 2 15.4315 2 32C2 48.5685 15.4315 62 32 62Z" fill="#F2F8FF"/>
<g id="Group">
<path id="Vector_2" d="M52 10H10C7.23858 10 5 12.2386 5 15V45C5 47.7614 7.23858 50 10 50H52C54.7614 50 57 47.7614 57 45V15C57 12.2386 54.7614 10 52 10Z" fill="white" stroke="#024991" stroke-width="1.8" stroke-linecap="round" stroke-linejoin="round"/>
<g id="Vector_3">
<path d="M6 20H56ZM13 15H14ZM19 15H20ZM25 15H26Z" fill="black"/>
<path d="M6 20H56M13 15H14M19 15H20M25 15H26" stroke="#024991" stroke-width="1.8" stroke-linecap="round" stroke-linejoin="round"/>
</g>
<path id="Vector_4" d="M26 27H14C12.8954 27 12 27.8954 12 29V41C12 42.1046 12.8954 43 14 43H26C27.1046 43 28 42.1046 28 41V29C28 27.8954 27.1046 27 26 27Z" fill="#D5E6F6"/>
<g id="Vector_5">
<path d="M35 28H49ZM35 35H46ZM35 42H43ZM26 50V56ZM38 50V56ZM20 56H44Z" fill="black"/>
<path d="M35 28H49M35 35H46M35 42H43M26 50V56M38 50V56M20 56H44" stroke="#024991" stroke-width="1.8" stroke-linecap="round" stroke-linejoin="round"/>
</g>
<path id="Vector_6" d="M16 35L19 32L24 39" stroke="#024991" stroke-width="1.8" stroke-linecap="round" stroke-linejoin="round"/>
</g>
</g>
</svg>
