<svg width="48" height="48" viewBox="0 0 48 48" fill="none" xmlns="http://www.w3.org/2000/svg">
<rect width="48" height="48" fill="#F5F5F5"/>
<g id="&#229;&#186;&#131;&#229;&#145;&#138;&#233;&#129;&#139;&#231;&#148;&#168; / LP&#230;&#148;&#185;&#229;&#150;&#132; / CVR&#230;&#148;&#185;&#229;&#150;&#132; / CRM&#233;&#128;&#163;&#230;&#144;&#186;">
<rect width="1440" height="12458" transform="translate(-455 -4846)" fill="white"/>
<g id="Group 15324">
<g id="002-marketing 1" clip-path="url(#clip0_1_2)">
<path id="Vector" d="M36.7949 19.4076C37.746 18.8091 38.4266 17.8888 38.7191 16.7974C39.0265 15.6499 38.8688 14.4513 38.2747 13.4225C37.0778 11.3492 34.4521 10.6047 32.3516 11.7116L28.3574 4.79344C27.8291 3.87844 26.9731 3.22312 25.947 2.94815C24.9208 2.67319 23.8517 2.81269 22.9369 3.34106C22.0219 3.86934 21.3666 4.72537 21.0916 5.75137C20.8844 6.52453 20.9128 7.32206 21.1653 8.05969C19.2681 12.8407 15.2527 17.7166 9.80119 21.8762C9.71662 21.8196 9.62315 21.7758 9.52284 21.7489C9.28275 21.6845 9.02681 21.7182 8.81147 21.8425L3.71465 24.7852C1.99997 25.7752 0.771655 27.3802 0.25603 29.3046C-0.259595 31.2289 0.00159228 33.2331 0.991686 34.9477C2.36812 37.3318 4.87369 38.6661 7.44684 38.6661C8.70806 38.6661 9.98559 38.3454 11.1541 37.6708L11.4458 37.5024L17.0667 44.8411C17.455 45.3481 17.9964 45.6465 18.6328 45.7042C18.7051 45.7107 18.7766 45.7139 18.8475 45.7139C19.4004 45.7139 19.9087 45.5163 20.328 45.1358L21.876 43.7312C22.7374 42.9494 22.8557 41.6618 22.1512 40.7362L16.866 33.7923C23.1435 31.1964 29.3166 30.1792 34.3658 30.9214C35.1307 31.7967 36.2325 32.2772 37.3593 32.2771C38.032 32.2771 38.7134 32.1061 39.3367 31.7463C41.2316 30.6523 41.8832 28.2207 40.7891 26.3257L36.7949 19.4076ZM36.6509 14.36C36.9945 14.9551 37.0858 15.6484 36.9079 16.3121C36.7451 16.9197 36.3742 17.4353 35.8562 17.7819L33.2901 13.3372C34.4933 12.7459 35.9707 13.1819 36.6509 14.36ZM7.44375 36.7914C5.51934 36.7913 3.6449 35.7933 2.61534 34.0102C1.87575 32.7292 1.68103 31.2305 2.06709 29.7899C2.45306 28.3493 3.37106 27.1487 4.65206 26.4091L8.937 23.9351L14.5014 33.5731L10.2165 36.0471C9.34247 36.5517 8.38734 36.7915 7.44375 36.7914ZM20.6159 42.3427L19.068 43.7472C18.9862 43.8215 18.9111 43.8467 18.8015 43.8367C18.6914 43.8267 18.6224 43.7887 18.5552 43.701L13.0834 36.557L15.5361 35.1409L20.6591 41.8718C20.7699 42.0173 20.7513 42.2197 20.6159 42.3427ZM15.8618 32.1791L10.8245 23.4541C16.0717 19.473 20.0782 14.8238 22.2935 10.1627L33.1072 28.8926C27.9628 28.4805 21.9331 29.6255 15.8618 32.1791ZM38.3992 30.1223C37.3994 30.6997 36.117 30.3557 35.5399 29.3563L23.1082 7.8239C22.5311 6.82434 22.8748 5.54175 23.8743 4.96472C24.1937 4.78031 24.5495 4.68609 24.9112 4.68609C25.0944 4.68609 25.2793 4.71028 25.4617 4.75912C26.004 4.90444 26.4558 5.24953 26.7336 5.73084L39.1652 27.2632C39.7423 28.2627 39.3986 29.5453 38.3992 30.1223ZM39.4187 12.762C39.1597 12.3136 39.3134 11.7402 39.7618 11.4814L43.5253 9.30853C43.9737 9.04959 44.5471 9.20334 44.8059 9.65165C45.0649 10.1001 44.9112 10.6734 44.4628 10.9323L40.6993 13.1051C40.5518 13.1903 40.3905 13.2309 40.2315 13.2309C39.9074 13.2309 39.5923 13.0627 39.4187 12.762ZM35.0799 6.72403L37.3719 2.75409C37.6308 2.30578 38.2041 2.15194 38.6526 2.41097C39.101 2.66981 39.2546 3.24319 38.9957 3.69159L36.7037 7.66153C36.5301 7.96228 36.2149 8.13047 35.8909 8.13047C35.7319 8.13047 35.5707 8.08997 35.4231 8.00465C34.9746 7.74581 34.821 7.17244 35.0799 6.72403ZM47.9999 18.6011C47.9999 19.1189 47.5801 19.5386 47.0624 19.5386H42.4784C41.9607 19.5386 41.5409 19.1189 41.5409 18.6011C41.5409 18.0833 41.9607 17.6636 42.4784 17.6636H47.0624C47.5801 17.6636 47.9999 18.0833 47.9999 18.6011Z" fill="#024991"/>
</g>
</g>
</g>
<defs>
<clipPath id="clip0_1_2">
<rect width="48" height="48" fill="white"/>
</clipPath>
</defs>
</svg>
