<svg preserveAspectRatio="none" overflow="visible" style="display: block;" width="96" height="96" viewBox="0 0 96 96" fill="none" xmlns="http://www.w3.org/2000/svg">
<g id="03">
<circle id="Ellipse 13" cx="48" cy="48" r="35" fill="white"/>
<g id="Group">
<path id="Vector" d="M15 73H81" stroke="#063C81" stroke-width="3" stroke-linecap="round" stroke-linejoin="round"/>
<path id="Vector_2" d="M22 70V51H32V70M39 70V37H49V70M56 70V47H66V70M73 70V29H83V70" stroke="#063C81" stroke-width="3" stroke-linecap="round" stroke-linejoin="round"/>
<path id="Vector_3" d="M18 34L34 18L51 30L66 15L80 22" stroke="#063C81" stroke-width="3" stroke-linecap="round" stroke-linejoin="round"/>
<path id="Vector_4" d="M18 37C19.6569 37 21 35.6569 21 34C21 32.3431 19.6569 31 18 31C16.3431 31 15 32.3431 15 34C15 35.6569 16.3431 37 18 37Z" fill="white" stroke="#063C81" stroke-width="3" stroke-linecap="round" stroke-linejoin="round"/>
<path id="Vector_5" d="M34 21C35.6569 21 37 19.6569 37 18C37 16.3431 35.6569 15 34 15C32.3431 15 31 16.3431 31 18C31 19.6569 32.3431 21 34 21Z" fill="white" stroke="#063C81" stroke-width="3" stroke-linecap="round" stroke-linejoin="round"/>
<path id="Vector_6" d="M51 33C52.6569 33 54 31.6569 54 30C54 28.3431 52.6569 27 51 27C49.3431 27 48 28.3431 48 30C48 31.6569 49.3431 33 51 33Z" fill="white" stroke="#063C81" stroke-width="3" stroke-linecap="round" stroke-linejoin="round"/>
<path id="Vector_7" d="M66 18C67.6569 18 69 16.6569 69 15C69 13.3431 67.6569 12 66 12C64.3431 12 63 13.3431 63 15C63 16.6569 64.3431 18 66 18Z" fill="white" stroke="#063C81" stroke-width="3" stroke-linecap="round" stroke-linejoin="round"/>
<path id="Vector_8" d="M80 25C81.6569 25 83 23.6569 83 22C83 20.3431 81.6569 19 80 19C78.3431 19 77 20.3431 77 22C77 23.6569 78.3431 25 80 25Z" fill="white" stroke="#063C81" stroke-width="3" stroke-linecap="round" stroke-linejoin="round"/>
<path id="Vector_9" d="M83 29H73V70H83V29Z" fill="#0B63CE" stroke="#063C81" stroke-width="3" stroke-linecap="round" stroke-linejoin="round"/>
</g>
</g>
</svg>
