<svg width="48" height="48" viewBox="0 0 48 48" fill="none" xmlns="http://www.w3.org/2000/svg">
<rect width="48" height="48" fill="#F5F5F5"/>
<g id="CRM / MA / SFA&#227;&#131;&#187;RevOps&#230;&#148;&#175;&#230;&#143;&#180;">
<rect width="1440" height="12780" transform="translate(-744 -4506)" fill="white"/>
<g id="7">
<g id="Group 15363">
<path id="Vector" d="M39.4471 11.1521C39.4517 11.1519 39.4561 11.15 39.4593 11.1467C39.4625 11.1434 39.4642 11.1389 39.4642 11.1343V9.55883C39.4643 9.53622 39.4569 9.51418 39.4434 9.496C39.4298 9.47782 39.4108 9.46445 39.389 9.45788C38.9754 9.33551 38.5991 8.90538 38.4645 8.49973C38.1861 7.65966 38.5777 6.83795 39.3682 6.46472C39.6235 6.34439 39.9031 6.29728 40.207 6.32339C40.6365 6.3601 41.0124 6.56466 41.3347 6.93707C41.8945 7.5844 41.8235 8.66125 41.1487 9.20824C40.9969 9.33143 40.8491 9.41913 40.7051 9.47134C40.6844 9.47887 40.6666 9.49255 40.654 9.5105C40.6414 9.52845 40.6347 9.54981 40.6347 9.57168V11.1233C40.6347 11.1305 40.6375 11.1373 40.6426 11.1424C40.6476 11.1474 40.6545 11.1502 40.6616 11.1502L42.8606 11.1564C42.8724 11.1568 42.8841 11.1588 42.8955 11.1625C43.0076 11.1996 43.1064 11.2196 43.1916 11.2224C43.2095 11.2233 43.227 11.2261 43.2436 11.231C43.6523 11.3501 43.9921 11.5012 44.263 11.6844C44.8242 12.0637 45.1964 12.5887 45.3796 13.2593C45.3825 13.2703 45.389 13.28 45.398 13.2872C45.407 13.2943 45.4181 13.2985 45.4297 13.2991C45.6263 13.3068 45.8213 13.3458 46.0147 13.4159C46.4613 13.5787 46.7519 13.8854 46.8865 14.3361C46.9069 14.4055 46.9302 14.4981 46.9563 14.6139C46.9628 14.6416 46.9661 14.6701 46.9661 14.699C46.9689 15.3059 46.9645 15.8472 46.9526 16.3228C46.9494 16.4513 46.8994 16.6224 46.8027 16.8361C46.5745 17.3378 46 17.6052 45.4671 17.6389C45.4543 17.6398 45.4422 17.6449 45.4327 17.6534C45.4231 17.6619 45.4167 17.6734 45.4144 17.686C45.2647 18.4953 44.8387 19.1132 44.1363 19.5399C43.8532 19.7116 43.5608 19.8321 43.2589 19.9015C43.0643 19.9459 42.7486 19.9678 42.3118 19.967C40.2804 19.9625 38.7645 19.9621 37.7639 19.9657C37.3352 19.9674 37.0052 19.9382 36.7739 19.8782C35.9926 19.6751 35.2859 19.1575 34.9164 18.4294C34.8034 18.2067 34.721 17.9774 34.6692 17.7417C34.6638 17.7165 34.6502 17.6937 34.6307 17.677C34.6111 17.6602 34.5866 17.6502 34.5609 17.6487C34.2582 17.6307 33.988 17.5526 33.7502 17.4143C33.358 17.1861 33.1096 16.7034 33.0906 16.2628C33.0886 16.2216 33.0857 15.7727 33.0821 14.9162C33.0808 14.6706 33.1096 14.4699 33.1683 14.3141C33.4063 13.6796 33.9766 13.3382 34.6606 13.2929C34.6806 13.2915 34.6997 13.2838 34.715 13.2708C34.7303 13.2578 34.741 13.2403 34.7457 13.2207C34.7971 13.0029 34.8854 12.7865 35.0106 12.5716C35.404 11.8943 36.0361 11.4458 36.8033 11.2426C37.0583 11.1749 37.4405 11.1435 37.9499 11.1484C38.6768 11.1553 39.1759 11.1566 39.4471 11.1521ZM45.4554 17.582C45.8266 17.5351 46.0999 17.4523 46.2753 17.3336C46.6832 17.0578 46.8945 16.6597 46.9092 16.1392C46.9202 15.7477 46.9265 15.3706 46.9282 15.0079C46.9306 14.5527 46.8266 14.1036 46.5201 13.8112C46.3826 13.6806 46.2894 13.6017 46.2404 13.5744C46.1442 13.5201 45.92 13.4416 45.568 13.3388C45.5056 13.3205 45.4389 13.3627 45.4059 13.3492C45.396 13.3454 45.387 13.3395 45.3794 13.3321C45.3719 13.3246 45.3659 13.3156 45.3618 13.3058C45.3023 13.1593 45.2431 13.0005 45.1844 12.8292C45.1689 12.7847 45.0969 12.6605 44.9684 12.4565C44.6392 11.9352 43.8634 11.3919 43.2571 11.2971C42.9055 11.2416 42.7162 11.2182 42.6893 11.2267C42.6885 11.2267 42.1405 11.2261 41.0453 11.2249C40.865 11.2245 40.7387 11.22 40.6665 11.2114C40.641 11.2084 40.6175 11.196 40.6006 11.1767C40.5836 11.1574 40.5744 11.1325 40.5747 11.1068L40.5882 9.52457C40.5882 9.50872 40.5938 9.49316 40.6041 9.48052C40.6586 9.41444 40.7687 9.40404 40.8574 9.34958C41.2865 9.08853 41.5514 8.70796 41.6522 8.20787C41.6748 8.09591 41.6553 7.98822 41.662 7.87993C41.6657 7.8167 41.6546 7.73553 41.6289 7.63641C41.5209 7.21668 41.2849 6.88098 40.921 6.62931C40.775 6.52815 40.6115 6.45412 40.4303 6.40721C40.3798 6.39416 40.2507 6.38314 40.043 6.37417C39.4753 6.34908 38.7906 6.79084 38.5679 7.29806C38.4851 7.4861 38.4384 7.65028 38.4278 7.7906C38.3874 8.31597 38.5561 8.76302 38.9338 9.13176C39.0753 9.27004 39.2319 9.36161 39.4037 9.40648C39.4342 9.41436 39.4612 9.43216 39.4805 9.45709C39.4997 9.48201 39.5102 9.51264 39.5101 9.54415V11.0787C39.5101 11.1085 39.4986 11.1371 39.4779 11.1585C39.4572 11.1799 39.429 11.1923 39.3994 11.1931C38.8883 11.2094 38.4194 11.2135 37.9927 11.2053C37.8818 11.2029 37.7949 11.2039 37.7321 11.2084C37.5167 11.2237 37.294 11.2145 37.0787 11.2481C36.0269 11.4103 35.0908 12.1543 34.8069 13.206C34.7955 13.2477 34.7713 13.2847 34.7377 13.3119C34.7041 13.339 34.6628 13.3548 34.6196 13.3572C34.2134 13.3772 33.8589 13.5275 33.5562 13.8081C33.1023 14.2284 33.1237 14.6176 33.1237 15.3071C33.1237 16.1558 33.046 16.7774 33.6382 17.2687C33.8854 17.4737 34.2801 17.5954 34.5952 17.6003C34.6227 17.6009 34.6492 17.611 34.67 17.6288C34.6909 17.6467 34.7049 17.6712 34.7096 17.6982C34.7438 17.8961 34.8077 18.0894 34.9011 18.2783C35.3074 19.0985 35.9347 19.6149 36.7831 19.8275C37.0034 19.8825 37.3383 19.9103 37.7878 19.9107C40.5672 19.9123 42.0297 19.9125 42.1753 19.9113C42.6116 19.907 42.8936 19.926 43.2259 19.8495C43.9279 19.6875 44.4944 19.3206 44.9256 18.7488C45.1385 18.4667 45.2676 18.1124 45.3331 17.7925C45.3461 17.7276 45.3704 17.6678 45.4059 17.6132C45.4112 17.6048 45.4184 17.5976 45.427 17.5922C45.4356 17.5868 45.4453 17.5833 45.4554 17.582Z" fill="#02152C" fill-opacity="0.996"/>
<path id="Vector_2" d="M45.4057 17.6131C45.3702 17.6677 45.3459 17.7275 45.3329 17.7923C45.2674 18.1123 45.1383 18.4666 44.9254 18.7487C44.4942 19.3205 43.9277 19.6874 43.2257 19.8494C42.8934 19.9259 42.6114 19.9069 42.1751 19.9112C42.0295 19.9124 40.567 19.9122 37.7876 19.9106C37.3381 19.9102 37.0032 19.8824 36.7829 19.8273C35.9345 19.6148 35.3072 19.0984 34.9009 18.2782C34.8075 18.0893 34.7436 17.896 34.7094 17.6981C34.7047 17.6711 34.6907 17.6466 34.6698 17.6287C34.649 17.6109 34.6225 17.6008 34.595 17.6002C34.2799 17.5953 33.8852 17.4736 33.638 17.2686C33.0458 16.7773 33.1235 16.1557 33.1235 15.307C33.1235 14.6175 33.1021 14.2283 33.5561 13.808C33.8587 13.5274 34.2132 13.3771 34.6194 13.3571C34.6626 13.3547 34.7039 13.3389 34.7375 13.3118C34.7711 13.2846 34.7953 13.2476 34.8067 13.2059C35.0906 12.1542 36.0267 11.4102 37.0785 11.248C37.2938 11.2144 37.5165 11.2236 37.7319 11.2083C37.7947 11.2038 37.8816 11.2028 37.9926 11.2052C38.4192 11.2134 38.8881 11.2093 39.3992 11.193C39.4288 11.1922 39.457 11.1798 39.4777 11.1584C39.4984 11.137 39.5099 11.1084 39.5099 11.0786V9.54404C39.51 9.51254 39.4995 9.48191 39.4803 9.45698C39.461 9.43206 39.434 9.41426 39.4035 9.40638C39.2317 9.36151 39.0751 9.26994 38.9336 9.13166C38.5559 8.76292 38.3872 8.31586 38.4276 7.79049C38.4382 7.65017 38.4849 7.486 38.5677 7.29795C38.7904 6.79073 39.4751 6.34898 40.0428 6.37407C40.2505 6.38304 40.3796 6.39405 40.4301 6.40711C40.6113 6.45401 40.7748 6.52805 40.9208 6.62921C41.2847 6.88088 41.5207 7.21658 41.6288 7.63631C41.6544 7.73542 41.6655 7.8166 41.6618 7.87982C41.6551 7.98812 41.6746 8.0958 41.652 8.20777C41.5513 8.70785 41.2863 9.08842 40.8572 9.34948C40.7685 9.40393 40.6584 9.41433 40.6039 9.48041C40.5936 9.49306 40.588 9.50861 40.588 9.52446L40.5745 11.1067C40.5742 11.1324 40.5834 11.1573 40.6004 11.1766C40.6173 11.1959 40.6408 11.2083 40.6663 11.2113C40.7385 11.2199 40.8648 11.2244 41.0451 11.2248C42.1403 11.226 42.6883 11.2266 42.6891 11.2266C42.716 11.2181 42.9053 11.2415 43.2569 11.297C43.8632 11.3918 44.639 11.9351 44.9682 12.4564C45.0967 12.6604 45.1687 12.7846 45.1842 12.829C45.2429 13.0004 45.3021 13.1592 45.3616 13.3057C45.3657 13.3155 45.3717 13.3245 45.3792 13.3319C45.3868 13.3394 45.3958 13.3453 45.4057 13.3491C45.4387 13.3626 45.5054 13.3204 45.5678 13.3387C45.9198 13.4415 46.144 13.52 46.2402 13.5743C46.2892 13.6016 46.3824 13.6805 46.5199 13.8111C46.8264 14.1035 46.9304 14.5526 46.928 15.0078C46.9263 15.3705 46.92 15.7476 46.909 16.1391C46.8943 16.6596 46.683 17.0577 46.2751 17.3335C46.0997 17.4522 45.8264 17.535 45.4552 17.5819C45.4451 17.5832 45.4354 17.5867 45.4268 17.5921C45.4182 17.5975 45.411 17.6046 45.4057 17.6131ZM40.7193 7.95872C40.715 7.87269 40.6934 7.78838 40.656 7.7106C40.6186 7.63282 40.5659 7.56308 40.5011 7.50538C40.4363 7.44768 40.3606 7.40315 40.2782 7.37431C40.1959 7.34548 40.1086 7.33292 40.0213 7.33734C39.934 7.34176 39.8484 7.36309 39.7694 7.40009C39.6904 7.4371 39.6195 7.48906 39.5609 7.55302C39.5022 7.61697 39.4569 7.69167 39.4275 7.77284C39.3982 7.85401 39.3853 7.94006 39.3896 8.02608C39.394 8.11211 39.4155 8.19642 39.4529 8.2742C39.4904 8.35198 39.543 8.42172 39.6078 8.47942C39.6726 8.53712 39.7484 8.58165 39.8307 8.61049C39.913 8.63932 40.0004 8.65188 40.0877 8.64746C40.175 8.64304 40.2606 8.62172 40.3396 8.58471C40.4186 8.5477 40.4894 8.49574 40.548 8.43178C40.6067 8.36783 40.652 8.29313 40.6814 8.21196C40.7108 8.13079 40.7237 8.04474 40.7193 7.95872ZM35.7171 14.3874C35.7065 14.5734 35.714 14.7048 35.7397 14.7814C35.7703 14.8726 35.725 15.1174 35.7269 15.2679C35.7363 16.295 35.7408 16.8556 35.7403 16.9498C35.7367 17.7599 36.0913 18.3206 36.8043 18.6318C37.0719 18.7489 37.3158 18.8076 37.5361 18.808C39.8493 18.8113 41.2776 18.8094 41.8209 18.8025C42.1195 18.7988 42.3397 18.7984 42.4817 18.8013C43.1914 18.8156 43.7321 18.5368 44.1037 17.9649C44.1877 17.8352 44.2473 17.6963 44.2823 17.5482C44.3211 17.3851 44.3401 17.2343 44.3392 17.0961C44.3339 16.3047 44.335 15.3692 44.3423 14.2895C44.3443 14.0236 44.3217 13.8025 44.2744 13.6263C44.2083 13.3815 44.1139 13.1798 43.9911 13.0212C43.6383 12.5647 43.1553 12.329 42.5422 12.3139C42.0711 12.3025 41.674 12.3018 41.351 12.312C41.1619 12.3182 41.001 12.3004 40.8395 12.301C39.8874 12.3039 38.8134 12.3004 37.6175 12.2906C37.1182 12.2865 36.6875 12.4554 36.3253 12.7972C35.9771 13.1264 35.7618 13.5033 35.741 13.9677C35.741 13.9697 35.733 14.1096 35.7171 14.3874ZM45.3347 15.5059C45.3351 15.8134 45.3374 16.1216 45.3414 16.4304C45.3431 16.5336 45.3794 16.5984 45.4504 16.6249C45.4657 16.6306 45.4822 16.6327 45.4987 16.6311C45.6655 16.6131 45.7826 16.5432 45.8499 16.4212C45.8988 16.3319 45.926 16.1967 45.9313 16.0155C45.9345 15.9107 45.9359 15.7406 45.9355 15.5053C45.9355 15.2699 45.9337 15.0998 45.93 14.995C45.9243 14.8143 45.8968 14.6793 45.8474 14.5899C45.7801 14.468 45.6631 14.3982 45.4962 14.3807C45.4797 14.3791 45.4632 14.3812 45.4479 14.3868C45.3769 14.4137 45.3408 14.4788 45.3396 14.582C45.3359 14.8908 45.3343 15.1987 45.3347 15.5059ZM34.5118 16.5491L34.5919 16.5558C34.598 16.5701 34.6113 16.5776 34.6317 16.5784C34.6619 16.5797 34.677 16.566 34.677 16.5374C34.6737 15.492 34.6796 14.8261 34.6947 14.5398C34.6961 14.5143 34.6906 14.489 34.6788 14.4664C34.667 14.4439 34.6494 14.4249 34.6277 14.4115C34.606 14.3982 34.5811 14.3909 34.5556 14.3906C34.5302 14.3902 34.5051 14.3967 34.483 14.4094L34.398 14.4584C34.338 14.493 34.2883 14.5427 34.2536 14.6026C34.2189 14.6625 34.2005 14.7305 34.2003 14.7998C34.2003 14.9687 34.1983 15.4102 34.1942 16.1245C34.193 16.3092 34.2434 16.4412 34.3453 16.5203C34.444 16.5974 34.4995 16.607 34.5118 16.5491Z" fill="#004FA6" fill-opacity="0.996"/>
<path id="Vector_3" d="M40.7182 7.95916C40.7226 8.04518 40.7097 8.13124 40.6803 8.2124C40.6509 8.29357 40.6056 8.36827 40.5469 8.43222C40.4883 8.49618 40.4174 8.54814 40.3384 8.58515C40.2595 8.62216 40.1739 8.64348 40.0866 8.6479C39.9992 8.65233 39.9119 8.63976 39.8296 8.61093C39.7473 8.5821 39.6715 8.53756 39.6067 8.47986C39.5419 8.42216 39.4893 8.35242 39.4518 8.27464C39.4144 8.19686 39.3929 8.11255 39.3885 8.02652C39.3842 7.9405 39.3971 7.85445 39.4264 7.77328C39.4558 7.69211 39.5011 7.61741 39.5598 7.55346C39.6184 7.4895 39.6893 7.43754 39.7683 7.40053C39.8473 7.36353 39.9329 7.3422 40.0202 7.33778C40.1075 7.33336 40.1948 7.34592 40.2771 7.37475C40.3595 7.40359 40.4352 7.44813 40.5 7.50583C40.5648 7.56353 40.6175 7.63326 40.6549 7.71104C40.6923 7.78882 40.7138 7.87314 40.7182 7.95916ZM40.6438 7.99468C40.6438 7.8363 40.5809 7.68441 40.4689 7.57242C40.3569 7.46043 40.205 7.39751 40.0466 7.39751C39.8883 7.39751 39.7364 7.46043 39.6244 7.57242C39.5124 7.68441 39.4495 7.8363 39.4495 7.99468C39.4495 8.15305 39.5124 8.30494 39.6244 8.41693C39.7364 8.52892 39.8883 8.59184 40.0466 8.59184C40.205 8.59184 40.3569 8.52892 40.4689 8.41693C40.5809 8.30494 40.6438 8.15305 40.6438 7.99468Z" fill="#02152C" fill-opacity="0.996"/>
<path id="Vector_4" d="M26.6472 16.5216L26.5958 16.4861C26.5875 16.4805 26.5808 16.4729 26.5762 16.4639C26.5716 16.4549 26.5693 16.4449 26.5695 16.4347C26.5768 15.891 26.5713 15.5288 26.553 15.3481C26.4967 14.8023 26.2542 14.3169 25.8255 13.8919C25.491 13.5603 25.0421 13.3314 24.4788 13.2054C24.3042 13.1667 24.0978 13.1538 23.8596 13.1669C23.7324 13.1738 23.5229 13.172 23.2313 13.1613C23.2104 13.1607 23.1905 13.152 23.1759 13.1371C23.1613 13.1221 23.1531 13.1021 23.1529 13.0812C23.1489 12.2715 23.1495 11.4676 23.1548 10.6693C23.156 10.4919 23.1309 10.3719 23.0226 10.2508C22.764 9.96241 22.4793 9.90123 22.1685 10.0672C22.0428 10.1341 21.9476 10.2269 21.8827 10.3456C21.8232 10.4554 21.7979 10.5867 21.8069 10.7397C21.8187 10.9481 21.8201 11.7359 21.8112 13.1032C21.811 13.1121 21.8076 13.1206 21.8018 13.1273C21.796 13.1339 21.788 13.1382 21.7793 13.1393C21.6296 13.1597 21.4885 13.1693 21.3559 13.1681C20.6111 13.162 19.8224 13.1618 18.9899 13.1675C18.9783 13.1675 18.9668 13.1653 18.956 13.1609C18.9453 13.1565 18.9355 13.1501 18.9272 13.1419C18.919 13.1337 18.9124 13.1239 18.908 13.1132C18.9035 13.1025 18.9012 13.091 18.9012 13.0794L18.8994 10.5267C18.8994 10.5227 18.899 10.5186 18.8982 10.5145C18.7525 9.99321 18.1774 9.81822 17.7607 10.1407C17.6261 10.2443 17.558 10.3566 17.5564 10.4778C17.5441 11.3136 17.539 12.1893 17.5411 13.1051C17.5411 13.1208 17.5348 13.1359 17.5237 13.147C17.5126 13.1582 17.4975 13.1644 17.4817 13.1644H14.7039C14.6825 13.1644 14.662 13.1558 14.6468 13.1406C14.6317 13.1253 14.6232 13.1046 14.6232 13.083V10.5292C14.6232 10.5069 14.6192 10.485 14.6116 10.4643C14.4835 10.1176 14.2291 9.9618 13.8486 9.99688C13.5741 10.0226 13.396 10.1543 13.3144 10.3921C13.238 10.6161 13.2832 10.8926 13.2838 11.1239C13.2851 12.0168 13.2832 12.6609 13.2783 13.0561C13.278 13.0851 13.2663 13.1128 13.2458 13.1332C13.2253 13.1536 13.1977 13.165 13.1688 13.165H10.4137C10.392 13.165 10.3713 13.1564 10.3559 13.141C10.3406 13.1257 10.3318 13.1048 10.3317 13.083C10.3276 12.7012 10.3276 11.8644 10.3317 10.5726C10.3329 10.1211 9.88626 9.92101 9.48489 10.0201C9.07189 10.1229 9.0156 10.4319 9.01071 10.8021C9.00092 11.6187 9.00378 12.3715 9.01928 13.0604C9.01976 13.078 9.01401 13.0952 9.00304 13.109C8.99207 13.1227 8.97658 13.1322 8.95932 13.1357C8.90384 13.1475 8.8449 13.1544 8.78249 13.1565C8.37317 13.1687 7.82862 13.1259 7.4144 13.2513C6.9237 13.3994 6.50296 13.6771 6.15216 14.0846C6.02674 14.2296 5.86154 14.5362 5.79729 14.6696C5.68553 14.8992 5.61721 15.16 5.59232 15.4521C5.56499 15.7776 5.55541 16.1162 5.56357 16.4678C5.56374 16.4752 5.56223 16.4825 5.55914 16.4893C5.55606 16.496 5.55149 16.5019 5.54578 16.5067C5.54006 16.5114 5.53335 16.5147 5.52616 16.5165C5.51896 16.5182 5.51146 16.5183 5.50422 16.5167C5.46261 16.5073 5.42917 16.5139 5.40388 16.5363C5.38613 16.5521 5.36349 16.5608 5.34024 16.5608C4.29847 16.573 3.46616 16.573 2.8433 16.5608C2.5025 16.5534 2.25164 16.6091 2.11642 16.9089C2.00915 17.1467 2.03668 17.3713 2.19902 17.5826C2.31976 17.7396 2.46518 17.8179 2.63527 17.8175C3.43434 17.8146 4.38515 17.8153 5.4877 17.8193C5.4981 17.8194 5.50837 17.8222 5.51741 17.8273C5.52645 17.8325 5.53392 17.8399 5.53901 17.8487C5.54411 17.8575 5.54664 17.8674 5.54633 17.8773C5.54602 17.8872 5.54288 17.8968 5.53726 17.905C5.51849 17.9323 5.52257 17.9595 5.5495 17.9864C5.6168 18.0541 5.62863 18.1261 5.58498 18.2024C5.57656 18.2172 5.57214 18.234 5.57213 18.2513L5.55867 20.7281C5.55851 20.747 5.55092 20.7651 5.53753 20.7785C5.52414 20.7919 5.50602 20.7995 5.48709 20.7996C5.2138 20.8021 4.37067 20.8009 2.95771 20.796C2.70971 20.7952 2.53268 20.816 2.42663 20.8584C1.98182 21.0364 1.96224 21.6318 2.28468 21.9346C2.38706 22.0305 2.48822 22.078 2.58816 22.0772C3.46351 22.0702 4.2536 22.0684 4.95845 22.0717C5.08041 22.0721 5.19952 22.0888 5.31577 22.1218C4.4498 22.1312 3.58628 22.1322 2.72521 22.1249C2.50454 22.1229 2.33995 22.0647 2.23145 21.9505C2.04137 21.7502 1.97529 21.5249 2.03321 21.2744C2.0944 21.0101 2.24144 20.8451 2.47435 20.7795C2.54288 20.7603 2.69809 20.7507 2.93997 20.7507C3.86304 20.7515 4.7029 20.7525 5.45955 20.7538C5.4674 20.7538 5.47518 20.7524 5.48245 20.7494C5.48972 20.7465 5.49634 20.7421 5.50192 20.7366C5.50749 20.7311 5.51192 20.7245 5.51494 20.7173C5.51796 20.71 5.51952 20.7022 5.51952 20.6944V17.9148C5.51952 17.906 5.51603 17.8976 5.50984 17.8914C5.50364 17.8852 5.49524 17.8817 5.48648 17.8817L2.59122 17.8836C2.58757 17.8836 2.58407 17.8832 2.58082 17.8824C2.12438 17.7802 1.86373 17.3072 2.0736 16.8814C2.23941 16.5455 2.47068 16.5002 2.85003 16.5014C3.80533 16.5047 4.68414 16.5073 5.48648 16.5094C5.49127 16.5094 5.49601 16.5084 5.50041 16.5065C5.50481 16.5047 5.50877 16.5019 5.51204 16.4985C5.51532 16.495 5.51783 16.491 5.51943 16.4865C5.52103 16.4821 5.52169 16.4774 5.52135 16.4727C5.51156 16.3181 5.51075 16.0754 5.5189 15.7446C5.54623 14.6559 6.03346 13.8597 6.9806 13.3559C7.03975 13.3241 7.27633 13.2454 7.69035 13.1197C7.69683 13.1177 7.70343 13.1167 7.70992 13.1167L8.92016 13.0996C8.92562 13.0995 8.93102 13.0983 8.93603 13.0962C8.94105 13.094 8.94559 13.0909 8.9494 13.0869C8.95321 13.083 8.9562 13.0784 8.95822 13.0733C8.96024 13.0682 8.96123 13.0628 8.96115 13.0573C8.95014 12.3109 8.95197 11.5746 8.96666 10.8486C8.9687 10.747 8.96972 10.6954 8.96972 10.6938C8.95687 10.438 9.05721 10.1755 9.28237 10.0458C9.69537 9.80782 10.2411 9.95527 10.3696 10.4435C10.381 10.4872 10.387 10.6564 10.3874 10.9514C10.389 12.2884 10.3886 12.9992 10.3861 13.0836C10.3861 13.0862 10.3865 13.0887 10.3874 13.0911C10.3883 13.0935 10.3897 13.0956 10.3915 13.0975C10.3932 13.0993 10.3954 13.1007 10.3977 13.1017C10.4 13.1027 10.4026 13.1032 10.4051 13.1032H13.2061C13.2086 13.1032 13.2109 13.1027 13.2132 13.1018C13.2154 13.1008 13.2174 13.0994 13.2191 13.0977C13.2208 13.0959 13.2222 13.0938 13.2231 13.0915C13.224 13.0892 13.2245 13.0867 13.2245 13.0843C13.2257 11.8899 13.2233 11.0937 13.2172 10.6956C13.211 10.3008 13.3907 10.0513 13.7562 9.94732C14.0621 9.86044 14.4561 10.0207 14.6079 10.3261C14.6532 10.4174 14.675 10.5663 14.6734 10.7727C14.6701 11.1928 14.6699 11.9581 14.6727 13.0683C14.6727 13.0776 14.6765 13.0865 14.6831 13.093C14.6898 13.0995 14.6988 13.1032 14.7082 13.1032H17.4548C17.4639 13.1032 17.4726 13.0997 17.479 13.0934C17.4855 13.0871 17.4891 13.0785 17.4891 13.0696V10.5169C17.4891 10.5024 17.4913 10.4877 17.4958 10.4735C17.6275 10.0668 17.9096 9.89103 18.342 9.9461C18.6622 9.98648 18.8645 10.1739 18.9489 10.5084C18.951 10.5157 18.952 10.5231 18.952 10.5304V13.0622C18.952 13.0731 18.9563 13.0835 18.964 13.0912C18.9717 13.0989 18.9821 13.1032 18.993 13.1032H21.731C21.7411 13.1032 21.7507 13.0992 21.7578 13.0921C21.7649 13.085 21.7689 13.0753 21.7689 13.0653C21.7706 12.0096 21.7698 11.2142 21.7665 10.6791C21.7653 10.4246 21.835 10.2282 22.051 10.0776C22.4291 9.81394 22.9015 9.91306 23.1334 10.3052C23.2015 10.4195 23.2304 10.5965 23.2202 10.8363C23.2182 10.8857 23.2149 11.6291 23.2104 13.0665C23.2104 13.0722 23.2116 13.0778 23.2138 13.083C23.216 13.0882 23.2192 13.0929 23.2232 13.0968C23.2273 13.1007 23.2321 13.1038 23.2374 13.1059C23.2426 13.1079 23.2482 13.1089 23.2539 13.1087C23.5884 13.1014 23.9339 13.1055 24.2904 13.121C24.3948 13.1259 24.5896 13.1732 24.8747 13.2629C25.077 13.327 25.2585 13.4102 25.4192 13.5125C25.8973 13.816 26.2446 14.2241 26.4612 14.7369C26.668 15.2263 26.6502 15.911 26.6178 16.4616C26.617 16.4735 26.6268 16.4935 26.6472 16.5216Z" fill="#02152C" fill-opacity="0.996"/>
<path id="Vector_5" d="M26.6485 16.5209L26.6987 16.5179L26.7917 16.5662C26.8041 16.5726 26.8178 16.576 26.8314 16.576C27.2202 16.576 27.8799 16.576 28.8108 16.576C28.8756 16.576 28.9233 16.6029 28.976 16.587C29.011 16.5764 29.052 16.574 29.0989 16.5797C29.1944 16.5919 29.3119 16.5915 29.4514 16.5785C29.555 16.5687 29.6298 16.577 29.6759 16.6035C29.8733 16.7169 29.9935 16.8734 30.0363 17.0728C30.113 17.4285 29.9694 17.6741 29.6056 17.8095C29.6007 17.8111 29.5955 17.8119 29.5903 17.8119H26.6375C26.6182 17.8119 26.5997 17.8197 26.586 17.8334C26.5724 17.8472 26.5647 17.8659 26.5647 17.8854V20.7139C26.5647 20.7272 26.5673 20.7404 26.5725 20.7527C26.5777 20.7649 26.5853 20.776 26.5949 20.7853C26.6045 20.7946 26.6159 20.8019 26.6283 20.8068C26.6408 20.8116 26.6541 20.814 26.6675 20.8137C26.9607 20.8055 27.8194 20.8012 29.2433 20.8008C29.5554 20.8008 29.8093 20.8491 29.9555 21.1067C30.1187 21.3939 30.091 21.6596 29.8723 21.904C29.7659 22.0227 29.6249 22.0806 29.4495 22.0777C28.4787 22.061 27.5385 22.0618 26.6289 22.0802C26.6134 22.0805 26.5986 22.087 26.5877 22.0982C26.5769 22.1094 26.5708 22.1244 26.5708 22.1401V23.9292C26.5708 23.9655 26.5852 24.0004 26.6109 24.0261C26.6366 24.0518 26.6715 24.0662 26.7079 24.0662H33.5911C33.6253 24.0662 33.6589 24.0571 33.6883 24.0398C33.7178 24.0224 33.7421 23.9976 33.7588 23.9677C34.0323 23.4746 34.5762 23.0059 35.1685 22.8572C36.1389 22.6131 37.0725 22.9104 37.688 23.7181C37.728 23.7707 37.7998 23.8817 37.9034 24.0509C37.91 24.0618 37.9192 24.0708 37.9302 24.0771C37.9412 24.0834 37.9537 24.0868 37.9664 24.087C38.1912 24.0907 38.4188 24.0573 38.6493 23.9867C39.0641 23.8602 39.3421 23.5912 39.4832 23.1797C39.4893 23.1614 39.493 23.1427 39.4942 23.124C39.5046 22.9337 39.5432 22.7324 39.5432 22.5066C39.5452 21.7084 39.5434 21.2024 39.5377 20.9886C39.5344 20.8691 39.5876 20.8092 39.6974 20.8088C40.0604 20.8083 40.3577 20.8055 40.5894 20.8002C40.6031 20.7999 40.6166 20.8023 40.6293 20.8072C40.642 20.8122 40.6535 20.8196 40.6633 20.8291C40.673 20.8385 40.6808 20.8498 40.6861 20.8623C40.6913 20.8748 40.6941 20.8882 40.6941 20.9018C40.6949 21.2497 40.6951 21.7912 40.6947 22.5262C40.6947 22.9427 40.662 23.2596 40.5968 23.477C40.4536 23.9543 40.111 24.4333 39.6545 24.7007C39.3759 24.8643 39.1973 24.9587 39.1186 24.984C38.8763 25.0619 38.5834 25.109 38.2399 25.1253C38.1004 25.1319 38.0252 25.1833 38.0142 25.2795C37.9877 25.5153 37.9344 25.719 37.8545 25.8908C37.5559 26.5324 37.0695 26.9468 36.3952 27.134C36.3823 27.1376 36.371 27.1453 36.3628 27.1558C36.3546 27.1664 36.3501 27.1794 36.3499 27.1928C36.3434 27.6884 36.3432 28.3383 36.3493 29.1427C36.3497 29.197 36.3624 29.2743 36.3873 29.3746C36.3885 29.3792 36.3909 29.3835 36.3942 29.387C36.3974 29.3905 36.4015 29.3931 36.406 29.3947C36.4105 29.3962 36.4153 29.3966 36.4199 29.3957C36.4246 29.3949 36.4289 29.3929 36.4325 29.3899L36.5794 29.2694C36.5846 29.2654 36.5888 29.2603 36.5916 29.2547C36.7478 28.9924 36.9812 28.8988 37.2916 28.9739C37.3117 28.9787 37.3305 28.9879 37.3466 29.0008C37.613 29.2157 37.6391 29.4694 37.425 29.7619C37.3458 29.8696 37.1301 30.0872 36.7776 30.4147C36.6222 30.5591 36.498 30.7158 36.3756 30.8271C36.3693 30.8327 36.3642 30.8396 36.3607 30.8473C36.3572 30.855 36.3554 30.8633 36.3554 30.8718V31.0914C36.3554 31.1007 36.3579 31.1098 36.3625 31.1177C36.3671 31.1257 36.3738 31.1323 36.3818 31.1367C36.4319 31.1649 36.5877 31.234 36.8492 31.3441C37.2306 31.504 37.5388 31.7688 37.7737 32.1383C38.2228 32.8444 38.3062 33.5753 38.024 34.3312C37.6715 35.2771 36.6828 35.9055 35.6836 35.8761C35.3263 35.8659 35.0237 35.8061 34.7757 35.6968C34.5835 35.612 34.3674 35.4719 34.1271 35.2765C34.0492 35.2133 33.9852 35.1476 33.935 35.0795C33.7808 34.8708 33.6694 34.7582 33.5819 34.5478C33.5318 34.4266 33.4912 34.3159 33.4602 34.2155C33.4555 34.2001 33.4464 34.1863 33.434 34.1759C33.4216 34.1654 33.4065 34.1588 33.3904 34.1568C33.2375 34.1368 33.0709 34.1278 32.8906 34.1299C32.1961 34.1366 31.7458 34.1164 31.0024 34.1476C30.6286 34.1635 30.4046 34.2486 30.1391 34.4841C29.8854 34.7089 29.7283 34.9885 29.668 35.323C29.6447 35.4502 29.6468 35.7498 29.6741 36.2218C29.6748 36.2332 29.6785 36.2442 29.6847 36.2538C29.6909 36.2635 29.6994 36.2714 29.7096 36.2768C29.7422 36.2944 29.8332 36.3233 29.9825 36.3637C30.0763 36.389 30.2152 36.4514 30.3991 36.551C30.5602 36.6382 30.6916 36.7186 30.7931 36.792C31.4433 37.2631 31.8304 37.9343 31.9544 38.8056C31.9655 38.8831 32.017 38.9219 32.1092 38.9219C33.4626 38.9231 34.7167 38.9184 35.8715 38.9078C35.9571 38.907 36.0397 38.8943 36.1193 38.8699C36.1292 38.8667 36.138 38.8609 36.1446 38.8529C36.1513 38.845 36.1556 38.8353 36.1569 38.825C36.1583 38.8147 36.1566 38.8043 36.1523 38.7949C36.1479 38.7855 36.1409 38.7775 36.1321 38.772C36.1056 38.7556 36.0854 38.7636 36.0716 38.7958L35.9981 38.7383L36.0189 38.731C36.0217 38.73 36.0242 38.7283 36.0262 38.7261C36.0282 38.7239 36.0295 38.7212 36.0301 38.7183C36.0308 38.7154 36.0306 38.7124 36.0297 38.7096C36.0288 38.7068 36.0272 38.7042 36.0251 38.7022C35.8397 38.5315 35.713 38.3706 35.7858 38.0971C35.7903 38.0805 35.7977 38.0648 35.8078 38.0506C35.9062 37.9127 36.0045 37.8289 36.1028 37.7991C36.2582 37.7526 36.3765 37.7571 36.4576 37.8126C36.6497 37.9431 36.9102 38.1656 37.239 38.4801C37.5161 38.7457 37.7511 38.9317 37.9983 39.1617C38.179 39.3298 38.2195 39.5123 38.12 39.7093C38.1115 39.7272 38.1004 39.7437 38.087 39.7583C38.0405 39.8097 37.9724 39.8772 37.8826 39.9608C37.5114 40.3083 37.0997 40.6658 36.6473 41.0333C36.3895 41.243 36.1458 41.2383 35.9161 41.0193C35.7587 40.8688 35.733 40.6803 35.8391 40.4539C35.8403 40.4511 35.8419 40.4484 35.8439 40.446L36.0281 40.2025C36.0334 40.1743 36.0532 40.1466 36.0875 40.1192C36.1201 40.1139 36.137 40.106 36.1382 40.0954C36.1394 40.0861 36.1385 40.0767 36.1357 40.0677C36.133 40.0588 36.1283 40.0505 36.1222 40.0435C36.116 40.0364 36.1084 40.0307 36.0999 40.0268C36.0914 40.0229 36.0821 40.0208 36.0728 40.0207C35.5462 40.0142 34.5676 40.0091 33.1371 40.0054C33.1155 40.0054 33.0945 40.0056 33.0741 40.0061C32.9358 40.0081 32.5518 40.0083 31.922 40.0067C31.886 40.0065 31.8506 40.0167 31.8201 40.0359C31.7895 40.0552 31.765 40.0828 31.7495 40.1156C31.3583 40.9363 30.7122 41.4567 29.8111 41.677C29.2831 41.8067 28.6437 41.7706 28.0998 41.543C27.9036 41.461 27.7818 41.4072 27.7345 41.3815C27.2765 41.1359 26.9193 40.7837 26.6632 40.3248C26.2991 39.6714 26.1884 39.0094 26.3964 38.28C26.5567 37.7192 26.8578 37.2617 27.2995 36.9077C27.5948 36.6707 27.9619 36.4794 28.4008 36.3338C28.4035 36.333 28.406 36.3316 28.4081 36.3298C28.4102 36.3281 28.4119 36.3258 28.4131 36.3234C28.418 36.314 28.4173 36.307 28.4112 36.3025L28.4687 36.2964C28.5006 36.314 28.5265 36.3109 28.5464 36.2873C28.5528 36.2801 28.5565 36.271 28.5569 36.2616C28.563 36.1049 28.5601 35.8932 28.5483 35.6265C28.5336 35.2855 28.587 34.9514 28.7086 34.6243C29.0053 33.8264 29.641 33.2917 30.4658 33.102C30.6359 33.0628 31.1013 33.0443 31.862 33.0463C32.7696 33.0492 33.2477 33.051 33.2962 33.0518C33.3253 33.0522 33.3537 33.0429 33.3769 33.0254C33.4002 33.0079 33.417 32.9832 33.4247 32.9551C33.4626 32.8136 33.5087 32.6714 33.563 32.5287C33.6099 32.4063 33.6839 32.2778 33.7851 32.1432C34.1371 31.6758 34.5976 31.358 35.1666 31.19C35.1834 31.1852 35.1987 31.1754 35.2107 31.1618C35.3227 31.0345 35.2388 30.8082 35.1489 30.7231C34.7598 30.3556 34.44 30.0585 34.1895 29.8317C33.9884 29.6493 33.9376 29.4389 34.0372 29.2002C34.1546 28.917 34.4489 28.9084 34.7267 28.9757C34.7384 28.9789 34.7493 28.9848 34.7585 28.9928L35.1562 29.3532C35.1618 29.3582 35.1684 29.3619 35.1756 29.3639C35.1827 29.3659 35.1903 29.3663 35.1977 29.3649C35.2051 29.3636 35.212 29.3605 35.2181 29.3561C35.2242 29.3516 35.2292 29.3458 35.2327 29.3391C35.26 29.2869 35.2711 29.2327 35.2658 29.1764C35.2482 28.9761 35.239 28.7966 35.2382 28.6379C35.2362 28.0816 35.2258 27.5976 35.207 27.186C35.2065 27.1753 35.2025 27.165 35.1957 27.1568C35.1889 27.1485 35.1795 27.1427 35.1691 27.1401C34.2776 26.9272 33.7141 26.1355 33.5477 25.2752C33.5449 25.2616 33.5374 25.2493 33.5266 25.2405C33.5158 25.2317 33.5023 25.2269 33.4883 25.2269H27.0077C27.0042 25.2269 27.0008 25.228 26.998 25.2299C26.9952 25.2319 26.993 25.2347 26.9917 25.2379C26.9791 25.2693 26.9518 25.2809 26.9098 25.2728C26.862 25.263 26.8102 25.2652 26.7544 25.2795L26.6675 25.2679C26.6605 25.2642 26.6542 25.262 26.6485 25.2612C26.6449 25.2607 26.6413 25.2611 26.6379 25.2623C26.6345 25.2635 26.6315 25.2655 26.629 25.268C26.6266 25.2706 26.6248 25.2737 26.6238 25.2771C26.6228 25.2805 26.6227 25.284 26.6234 25.2875C26.6361 25.3491 26.6265 25.3772 26.5947 25.3719C26.5929 25.3716 26.5911 25.3717 26.5894 25.3722C26.5877 25.3727 26.5861 25.3735 26.5847 25.3746C26.5834 25.3757 26.5823 25.3771 26.5816 25.3786C26.5809 25.3802 26.5805 25.3818 26.5806 25.3835V26.431C26.5806 26.4615 26.5926 26.4907 26.614 26.5124C26.6354 26.534 26.6645 26.5463 26.695 26.5467C27.2852 26.5548 27.8192 26.5609 28.2968 26.565C28.5795 26.5681 29.228 26.5161 29.556 26.546C29.7873 26.5675 29.9794 26.8085 30.0436 27.0141C30.0873 27.1528 30.0773 27.2923 30.0137 27.4326C29.8644 27.7606 29.589 27.8046 29.2336 27.7985C28.6013 27.7871 27.7464 27.7879 26.6687 27.8009C26.6421 27.8013 26.6166 27.812 26.5979 27.8309C26.5791 27.8498 26.5685 27.8753 26.5683 27.9019C26.5647 28.508 26.5632 29.2781 26.5641 30.2122C26.5645 30.419 26.5318 30.6273 26.4662 30.8369C26.2418 31.5512 25.805 32.0741 25.1556 32.4057C24.8576 32.5574 24.3945 32.6908 24.0787 32.6945C23.6806 32.699 23.4031 32.7045 23.246 32.711C23.2182 32.712 23.1918 32.7236 23.1725 32.7436C23.1531 32.7636 23.1422 32.7903 23.142 32.8181C23.1367 33.5315 23.1349 34.2382 23.1365 34.9381C23.1377 35.3585 22.8073 35.5396 22.4274 35.5243C22.2748 35.5178 22.1449 35.4664 22.0376 35.3701C21.9042 35.2506 21.8351 35.1117 21.8302 34.9534C21.8082 34.2939 21.8059 33.5607 21.8235 32.7538C21.8236 32.7472 21.8225 32.7407 21.8201 32.7345C21.8176 32.7283 21.814 32.7227 21.8094 32.718C21.8048 32.7133 21.7993 32.7095 21.7932 32.7069C21.7871 32.7044 21.7805 32.7031 21.7739 32.7031H18.9099C18.9024 32.703 18.8953 32.7059 18.89 32.711C18.8846 32.7162 18.8814 32.7232 18.8811 32.7306C18.8497 33.4085 18.8446 34.0658 18.8658 34.7026C18.8683 34.7821 18.8601 34.901 18.8413 35.0593C18.804 35.3762 18.5005 35.5402 18.2026 35.5231C17.7645 35.4986 17.5459 35.2473 17.5467 34.7693C17.5483 33.9633 17.5469 33.288 17.5424 32.7434C17.5424 32.7324 17.538 32.7218 17.5302 32.714C17.5224 32.7062 17.5118 32.7018 17.5008 32.7018H14.6227C14.6131 32.7018 14.6037 32.7052 14.5964 32.7113C14.589 32.7175 14.584 32.726 14.5823 32.7355C14.559 32.8591 14.5474 32.9411 14.5474 32.9814C14.5462 33.6355 14.5156 33.9341 14.5419 34.456C14.5509 34.6318 14.5472 34.8388 14.5309 35.077C14.5274 35.1266 14.5132 35.1749 14.4892 35.2184C14.4653 35.262 14.4321 35.2997 14.392 35.3291L14.1974 35.4723C14.1881 35.4788 14.1778 35.4837 14.1668 35.487C13.7752 35.5977 13.2986 35.4111 13.2821 34.9657C13.2707 34.6573 13.267 34.0926 13.2711 33.2715C13.2719 33.1401 13.2615 32.9768 13.2399 32.7814C13.2373 32.7588 13.2266 32.738 13.2096 32.7229C13.1927 32.7077 13.1708 32.6994 13.1481 32.6994H10.3783C10.3674 32.6994 10.357 32.7037 10.3493 32.7114C10.3416 32.7191 10.3373 32.7295 10.3373 32.7404C10.3332 33.9963 10.3318 34.6995 10.333 34.85C10.3373 35.3683 9.95182 35.6044 9.47947 35.5065C9.14785 35.4374 8.99367 35.1774 8.99489 34.8586C8.99938 33.849 8.99836 33.1464 8.99183 32.7508C8.99168 32.7437 8.99013 32.7367 8.98727 32.7303C8.98442 32.7238 8.98032 32.7179 8.9752 32.7131C8.97009 32.7082 8.96406 32.7043 8.95747 32.7018C8.95087 32.6992 8.94384 32.698 8.93677 32.6982C8.74098 32.7022 8.55191 32.7063 8.36958 32.7104C7.59825 32.7279 6.94154 32.4706 6.39944 31.9382C5.99644 31.543 5.74639 31.0778 5.64931 30.5426C5.64671 30.5284 5.6392 30.5155 5.62811 30.5063C5.61702 30.4972 5.60307 30.4922 5.58874 30.4925C5.19308 30.4969 4.19312 30.4986 2.58886 30.4973C2.50035 30.4973 2.41081 30.4615 2.32026 30.3897C2.09632 30.2118 2.02107 29.9893 2.09449 29.7221C2.18137 29.404 2.39694 29.248 2.74121 29.2541C3.72261 29.2712 4.64201 29.2667 5.49941 29.2406C5.52208 29.24 5.54358 29.2304 5.55927 29.2141C5.57496 29.1977 5.58357 29.1758 5.58324 29.1531C5.57406 28.6557 5.59608 28.2678 5.58262 27.8383C5.57528 27.6131 5.57528 27.4371 5.58262 27.3102C5.60098 26.9927 5.58507 26.6415 5.55387 26.3711C5.5528 26.3619 5.54881 26.3534 5.54251 26.3467C5.53622 26.3401 5.52796 26.3358 5.51899 26.3343C5.42232 26.3209 5.32769 26.3142 5.2351 26.3142C4.96588 26.3146 4.36811 26.3095 3.44177 26.2989C3.22314 26.2964 3.02531 26.3021 2.84828 26.316C2.53991 26.3409 2.30496 26.2305 2.14343 25.985C2.13249 25.9679 2.12423 25.9492 2.11896 25.9293C2.0643 25.7184 2.08103 25.5247 2.16913 25.348C2.25602 25.1739 2.37165 25.0805 2.51605 25.0678C2.75304 25.0466 2.90478 25.0366 2.97126 25.0378C3.77401 25.0493 4.47131 25.038 5.06317 25.0042L5.48167 24.9736C5.49298 24.9728 5.50358 24.9677 5.51131 24.9593C5.51903 24.9509 5.52331 24.9398 5.52327 24.9283V22.1799C5.5233 22.1704 5.52061 22.161 5.51553 22.1529C5.51044 22.1448 5.50316 22.1383 5.49452 22.134C5.44557 22.1104 5.38643 22.1061 5.31708 22.1212C5.20083 22.0881 5.08173 22.0714 4.95976 22.071C4.25492 22.0677 3.46482 22.0696 2.58947 22.0765C2.48954 22.0773 2.38838 22.0298 2.28599 21.9339C1.96355 21.6311 1.98313 21.0358 2.42794 20.8577C2.534 20.8153 2.71102 20.7945 2.95903 20.7953C4.37198 20.8002 5.21511 20.8014 5.4884 20.799C5.50734 20.7988 5.52545 20.7912 5.53884 20.7778C5.55223 20.7644 5.55983 20.7463 5.55999 20.7274L5.57345 18.2506C5.57345 18.2334 5.57788 18.2165 5.58629 18.2017C5.62994 18.1254 5.61811 18.0534 5.55081 17.9857C5.52389 17.9588 5.51981 17.9317 5.53857 17.9043C5.5442 17.8961 5.54733 17.8866 5.54764 17.8766C5.54795 17.8667 5.54542 17.8568 5.54033 17.848C5.53523 17.8392 5.52777 17.8318 5.51872 17.8267C5.50968 17.8215 5.49941 17.8187 5.48901 17.8187C4.38646 17.8146 3.43565 17.814 2.63658 17.8168C2.46649 17.8172 2.32107 17.7389 2.20034 17.5819C2.03799 17.3706 2.01046 17.146 2.11774 16.9082C2.25295 16.6084 2.50381 16.5528 2.84461 16.5601C3.46747 16.5723 4.29979 16.5723 5.34156 16.5601C5.3648 16.5601 5.38745 16.5514 5.40519 16.5356C5.43048 16.5132 5.46393 16.5067 5.50553 16.516C5.51277 16.5176 5.52027 16.5175 5.52747 16.5158C5.53467 16.514 5.54137 16.5107 5.54709 16.506C5.5528 16.5013 5.55737 16.4953 5.56046 16.4886C5.56354 16.4818 5.56505 16.4745 5.56488 16.4671C5.55672 16.1155 5.56631 15.7769 5.59364 15.4514C5.61852 15.1594 5.68684 14.8985 5.79861 14.6689C5.86285 14.5355 6.02805 14.229 6.15348 14.084C6.50427 13.6765 6.92502 13.3987 7.41572 13.2506C7.82994 13.1252 8.37448 13.168 8.78381 13.1558C8.84621 13.1537 8.90516 13.1468 8.96063 13.135C8.9779 13.1315 8.99338 13.1221 9.00435 13.1083C9.01533 13.0945 9.02108 13.0773 9.02059 13.0597C9.00509 12.3708 9.00223 11.618 9.01202 10.8014C9.01692 10.4312 9.07321 10.1222 9.4862 10.0195C9.88758 9.92034 10.3342 10.1204 10.333 10.572C10.3289 11.8638 10.3289 12.7006 10.333 13.0824C10.3332 13.1042 10.3419 13.125 10.3572 13.1404C10.3726 13.1557 10.3933 13.1643 10.415 13.1643H13.1701C13.199 13.1643 13.2266 13.1529 13.2471 13.1325C13.2677 13.1121 13.2793 13.0844 13.2797 13.0554C13.2845 12.6602 13.2864 12.0161 13.2852 11.1232C13.2845 10.8919 13.2393 10.6154 13.3158 10.3915C13.3973 10.1537 13.5754 10.0219 13.8499 9.9962C14.2305 9.96112 14.4848 10.1169 14.6129 10.4637C14.6206 10.4843 14.6245 10.5063 14.6245 10.5285V13.0824C14.6245 13.1039 14.633 13.1246 14.6481 13.1399C14.6633 13.1552 14.6838 13.1637 14.7053 13.1637H17.483C17.4988 13.1637 17.5139 13.1575 17.525 13.1464C17.5361 13.1352 17.5424 13.1201 17.5424 13.1044C17.5404 12.1887 17.5455 11.3129 17.5577 10.4771C17.5593 10.356 17.6274 10.2436 17.762 10.14C18.1787 9.81755 18.7538 9.99253 18.8995 10.5138C18.9003 10.5179 18.9007 10.522 18.9007 10.5261L18.9025 13.0787C18.9025 13.0903 18.9048 13.1018 18.9093 13.1125C18.9138 13.1233 18.9203 13.133 18.9285 13.1412C18.9368 13.1494 18.9466 13.1559 18.9573 13.1603C18.9681 13.1647 18.9796 13.1669 18.9912 13.1668C19.8238 13.1611 20.6124 13.1613 21.3573 13.1674C21.4898 13.1686 21.631 13.159 21.7806 13.1386C21.7893 13.1375 21.7973 13.1332 21.8031 13.1266C21.809 13.12 21.8123 13.1114 21.8125 13.1025C21.8214 11.7353 21.82 10.9474 21.8082 10.739C21.7992 10.586 21.8245 10.4547 21.8841 10.345C21.9489 10.2263 22.0442 10.1335 22.1698 10.0666C22.4806 9.90055 22.7653 9.96174 23.0239 10.2501C23.1322 10.3713 23.1573 10.4912 23.1561 10.6686C23.1508 11.4669 23.1502 12.2708 23.1542 13.0805C23.1544 13.1014 23.1626 13.1214 23.1772 13.1364C23.1918 13.1513 23.2117 13.16 23.2326 13.1607C23.5242 13.1713 23.7337 13.1731 23.8609 13.1662C24.0991 13.1531 24.3055 13.166 24.4801 13.2047C25.0434 13.3308 25.4923 13.5596 25.8268 13.8912C26.2555 14.3162 26.498 14.8016 26.5543 15.3474C26.5726 15.5281 26.5781 15.8903 26.5708 16.4341C26.5706 16.4442 26.5729 16.4542 26.5775 16.4632C26.5821 16.4722 26.5888 16.4798 26.5971 16.4854L26.6485 16.5209ZM8.72935 31.565C8.74567 31.5573 8.75872 31.5534 8.76851 31.5534C13.3541 31.5571 18.2897 31.556 23.5752 31.5503C23.6784 31.5503 23.7906 31.5473 23.9117 31.5412C24.0887 31.5322 24.2007 31.5214 24.2476 31.5087C24.6312 31.4078 24.9928 31.2218 25.177 30.892C25.3049 30.6632 25.3771 30.4441 25.3814 30.1566C25.3942 29.3006 25.3808 28.4054 25.3814 27.5813C25.3838 21.1243 25.3861 17.2266 25.3881 15.8883C25.3887 15.6619 25.3563 15.531 25.311 15.2618C25.3077 15.2426 25.3024 15.2238 25.2951 15.2055C25.134 14.8208 24.8774 14.5589 24.5254 14.4199C24.3839 14.3644 24.1191 14.3368 23.7312 14.3373C19.1285 14.3434 13.8523 14.3438 7.90274 14.3385C7.89341 14.3385 7.88435 14.3397 7.87582 14.3422C7.35208 14.4878 7.007 14.8137 6.84058 15.3199C6.83449 15.3386 6.83079 15.3581 6.82957 15.378C6.81121 15.6917 6.81019 16.2413 6.82651 17.0269C6.84731 18.001 6.81855 19.4982 6.81978 20.635C6.8263 25.0627 6.82732 27.6382 6.82284 28.3614C6.8208 28.7101 6.821 29.1191 6.82345 29.5881C6.8259 30.085 6.8622 30.4251 6.93236 30.6087C7.11632 31.0888 7.48506 31.3886 8.03858 31.5081C8.1585 31.5342 8.27006 31.5477 8.37326 31.5485C8.56701 31.5505 8.67938 31.5565 8.71038 31.5662C8.71664 31.5682 8.7234 31.5678 8.72935 31.565ZM34.6425 24.7435C34.6138 24.8898 34.6155 25.0407 34.6476 25.1874C34.6797 25.3341 34.7416 25.4738 34.8296 25.5985C34.9176 25.7232 35.0301 25.8305 35.1607 25.9143C35.2912 25.9981 35.4372 26.0567 35.5904 26.0867C35.8998 26.1474 36.2196 26.0882 36.4794 25.9222C36.7391 25.7561 36.9177 25.4968 36.9756 25.2012C37.0044 25.0549 37.0026 24.9041 36.9705 24.7574C36.9384 24.6107 36.8766 24.471 36.7886 24.3463C36.7005 24.2215 36.588 24.1142 36.4575 24.0304C36.3269 23.9467 36.1809 23.8881 36.0277 23.858C35.7183 23.7973 35.3985 23.8565 35.1388 24.0226C34.879 24.1886 34.7005 24.448 34.6425 24.7435ZM37.0829 33.4917C37.0829 33.1464 36.9458 32.8152 36.7016 32.5711C36.4574 32.3269 36.1262 32.1897 35.7809 32.1897C35.4356 32.1897 35.1044 32.3269 34.8603 32.5711C34.6161 32.8152 34.4789 33.1464 34.4789 33.4917C34.4789 33.837 34.6161 34.1682 34.8603 34.4124C35.1044 34.6566 35.4356 34.7937 35.7809 34.7937C36.1262 34.7937 36.4574 34.6566 36.7016 34.4124C36.9458 34.1682 37.0829 33.837 37.0829 33.4917ZM28.6511 37.4146C28.4446 37.4785 28.253 37.5832 28.0872 37.7227C27.9213 37.8622 27.7845 38.0338 27.6845 38.2276C27.5845 38.4215 27.5233 38.6338 27.5044 38.8525C27.4856 39.0712 27.5093 39.2919 27.5744 39.5022C27.6395 39.7124 27.7446 39.908 27.8837 40.0778C28.0229 40.2475 28.1933 40.3882 28.3853 40.4916C28.5773 40.5951 28.7872 40.6594 29.0028 40.6808C29.2185 40.7022 29.4358 40.6803 29.6422 40.6164C29.8487 40.5525 30.0403 40.4478 30.2062 40.3083C30.372 40.1688 30.5089 39.9972 30.6088 39.8033C30.7088 39.6095 30.77 39.3972 30.7889 39.1785C30.8078 38.9598 30.784 38.739 30.7189 38.5288C30.6539 38.3185 30.5487 38.123 30.4096 37.9532C30.2705 37.7834 30.1 37.6428 29.908 37.5393C29.716 37.4359 29.5062 37.3716 29.2905 37.3502C29.0749 37.3288 28.8576 37.3507 28.6511 37.4146Z" fill="#004FA6" fill-opacity="0.996"/>
<path id="Vector_6" d="M35.7175 14.3879C35.7334 14.1101 35.7414 13.9702 35.7414 13.9682C35.7622 13.5038 35.9776 13.1269 36.3257 12.7977C36.6879 12.4559 37.1187 12.287 37.6179 12.2911C38.8139 12.3009 39.8879 12.3043 40.8399 12.3015C41.0014 12.3009 41.1624 12.3186 41.3514 12.3125C41.6745 12.3023 42.0716 12.3029 42.5427 12.3143C43.1558 12.3294 43.6387 12.5652 43.9915 13.0216C44.1143 13.1803 44.2087 13.382 44.2748 13.6267C44.3221 13.803 44.3448 14.024 44.3427 14.29C44.3354 15.3697 44.3344 16.3052 44.3397 17.0965C44.3405 17.2348 44.3215 17.3855 44.2828 17.5487C44.2477 17.6968 44.1881 17.8356 44.1041 17.9654C43.7325 18.5372 43.1919 18.816 42.4821 18.8017C42.3402 18.7989 42.1199 18.7993 41.8213 18.803C41.278 18.8099 39.8497 18.8117 37.5366 18.8085C37.3163 18.8081 37.0724 18.7493 36.8048 18.6323C36.0918 18.321 35.7371 17.7604 35.7408 16.9503C35.7412 16.8561 35.7367 16.2954 35.7273 15.2683C35.7255 15.1178 35.7708 14.8731 35.7402 14.7819C35.7145 14.7052 35.7069 14.5739 35.7175 14.3879ZM44.0784 13.2658C43.8561 12.8783 43.5318 12.6068 43.1056 12.4514C42.9555 12.3967 42.7705 12.3688 42.5506 12.3676C41.4138 12.3615 39.8981 12.3608 38.0034 12.3657C37.6294 12.367 37.4232 12.3702 37.3848 12.3755C37.1495 12.4094 36.9522 12.4663 36.7932 12.5462C36.2737 12.8081 35.9066 13.2884 35.8118 13.8703C35.7869 14.0236 35.7748 14.1988 35.7757 14.3958C35.7802 15.5971 35.7802 16.4329 35.7757 16.9032C35.7679 17.6953 36.1097 18.2531 36.8011 18.5766C37.0393 18.6879 37.2445 18.7432 37.4166 18.7424C38.3838 18.7395 40.0788 18.7395 42.5017 18.7424C42.7697 18.7428 42.9802 18.7173 43.1331 18.6659C43.6022 18.5077 43.9481 18.1938 44.1708 17.7243C44.2344 17.5909 44.2295 17.4661 44.2816 17.3327C44.2848 17.325 44.2865 17.3169 44.2864 17.3088V13.9162C44.2864 13.8991 44.2842 13.8822 44.2797 13.866C44.2143 13.6121 44.1794 13.442 44.0784 13.2658Z" fill="#02152C" fill-opacity="0.996"/>
<path id="Vector_7" d="M39.2313 15.2792C39.2313 15.5356 39.1294 15.7815 38.9481 15.9628C38.7669 16.1441 38.521 16.2459 38.2646 16.2459C38.0082 16.2459 37.7623 16.1441 37.581 15.9628C37.3997 15.7815 37.2979 15.5356 37.2979 15.2792C37.2979 15.0228 37.3997 14.7769 37.581 14.5956C37.7623 14.4143 38.0082 14.3125 38.2646 14.3125C38.521 14.3125 38.7669 14.4143 38.9481 14.5956C39.1294 14.7769 39.2313 15.0228 39.2313 15.2792ZM39.1781 15.278C39.1781 15.0364 39.0821 14.8046 38.9112 14.6338C38.7404 14.4629 38.5086 14.367 38.267 14.367C38.0254 14.367 37.7937 14.4629 37.6228 14.6338C37.452 14.8046 37.356 15.0364 37.356 15.278C37.356 15.5196 37.452 15.7513 37.6228 15.9222C37.7937 16.093 38.0254 16.189 38.267 16.189C38.5086 16.189 38.7404 16.093 38.9112 15.9222C39.0821 15.7513 39.1781 15.5196 39.1781 15.278Z" fill="#02152C" fill-opacity="0.996"/>
<path id="Vector_8" d="M42.9156 15.2732C42.9156 15.5275 42.8146 15.7714 42.6348 15.9512C42.455 16.131 42.2111 16.232 41.9568 16.232C41.7025 16.232 41.4587 16.131 41.2789 15.9512C41.0991 15.7714 40.998 15.5275 40.998 15.2732C40.998 15.0189 41.0991 14.7751 41.2789 14.5953C41.4587 14.4155 41.7025 14.3145 41.9568 14.3145C42.2111 14.3145 42.455 14.4155 42.6348 14.5953C42.8146 14.7751 42.9156 15.0189 42.9156 15.2732ZM42.8605 15.272C42.8605 15.0317 42.765 14.8012 42.5951 14.6313C42.4252 14.4613 42.1947 14.3658 41.9544 14.3658C41.8354 14.3658 41.7175 14.3893 41.6076 14.4348C41.4977 14.4804 41.3978 14.5471 41.3136 14.6313C41.2295 14.7154 41.1627 14.8153 41.1172 14.9252C41.0717 15.0352 41.0482 15.153 41.0482 15.272C41.0482 15.391 41.0717 15.5088 41.1172 15.6188C41.1627 15.7287 41.2295 15.8286 41.3136 15.9127C41.3978 15.9969 41.4977 16.0636 41.6076 16.1092C41.7175 16.1547 41.8354 16.1781 41.9544 16.1781C42.1947 16.1781 42.4252 16.0827 42.5951 15.9127C42.765 15.7428 42.8605 15.5123 42.8605 15.272Z" fill="#02152C" fill-opacity="0.996"/>
<path id="Vector_9" d="M8.70984 31.5659C8.67884 31.5561 8.56647 31.5502 8.37272 31.5482C8.26952 31.5473 8.15796 31.5339 8.03804 31.5078C7.48452 31.3883 7.11578 31.0885 6.93182 30.6084C6.86166 30.4248 6.82536 30.0846 6.82291 29.5878C6.82046 29.1187 6.82026 28.7098 6.8223 28.3611C6.82679 27.6379 6.82577 25.0624 6.81924 20.6347C6.81802 19.4978 6.84677 18.0007 6.82597 17.0266C6.80965 16.241 6.81067 15.6913 6.82903 15.3777C6.83025 15.3578 6.83395 15.3382 6.84004 15.3195C7.00646 14.8133 7.35154 14.4874 7.87529 14.3418C7.88381 14.3394 7.89287 14.3381 7.90221 14.3381C13.8518 14.3434 19.128 14.343 23.7307 14.3369C24.1186 14.3365 24.3833 14.364 24.5249 14.4195C24.8769 14.5586 25.1334 14.8205 25.2946 15.2051C25.3019 15.2234 25.3072 15.2423 25.3105 15.2614C25.3557 15.5306 25.3882 15.6616 25.3876 15.8879C25.3855 17.2263 25.3833 21.1239 25.3808 27.5809C25.3802 28.4051 25.3937 29.3002 25.3808 30.1562C25.3765 30.4438 25.3043 30.6628 25.1765 30.8916C24.9923 31.2214 24.6307 31.4074 24.2471 31.5084C24.2002 31.521 24.0882 31.5318 23.9112 31.5408C23.79 31.5469 23.6779 31.55 23.5747 31.55C18.2891 31.5557 13.3536 31.5567 8.76797 31.5531C8.75818 31.5531 8.74513 31.5569 8.72881 31.5647C8.72286 31.5674 8.7161 31.5679 8.70984 31.5659ZM25.2426 30.5839C25.2952 30.4534 25.3215 30.2988 25.3215 30.1201C25.3211 24.4642 25.3211 19.814 25.3215 16.1694C25.3215 15.9059 25.3201 15.7438 25.3172 15.683C25.3086 15.4921 25.2789 15.333 25.2279 15.2057C25.0924 14.8684 24.865 14.6284 24.5457 14.4856C24.3976 14.4195 24.0717 14.3877 23.5679 14.3901C22.5192 14.395 17.4788 14.3963 8.44675 14.3938C8.1861 14.3938 7.95299 14.3797 7.73701 14.4532C7.28975 14.6061 6.92998 15.0051 6.89572 15.5C6.88511 15.6534 6.87981 15.7442 6.87981 15.7723C6.87941 20.0169 6.88328 24.6837 6.89144 29.7726C6.89205 30.2994 6.93855 30.7081 7.29587 31.055C7.58752 31.3377 7.94565 31.4788 8.37027 31.4784C11.0832 31.4747 16.2535 31.4737 23.8812 31.4754C24.5477 31.4754 25.0015 31.1782 25.2426 30.5839Z" fill="#02152C" fill-opacity="0.996"/>
<path id="Vector_10" d="M38.2665 16.1893C38.7697 16.1893 39.1775 15.7814 39.1775 15.2782C39.1775 14.7751 38.7697 14.3672 38.2665 14.3672C37.7634 14.3672 37.3555 14.7751 37.3555 15.2782C37.3555 15.7814 37.7634 16.1893 38.2665 16.1893Z" fill="#004FA6" fill-opacity="0.996"/>
<path id="Vector_11" d="M41.953 16.1775C42.4535 16.1775 42.8592 15.7718 42.8592 15.2714C42.8592 14.7709 42.4535 14.3652 41.953 14.3652C41.4526 14.3652 41.0469 14.7709 41.0469 15.2714C41.0469 15.7718 41.4526 16.1775 41.953 16.1775Z" fill="#004FA6" fill-opacity="0.996"/>
<path id="Vector_12" d="M45.9349 15.506C45.9353 15.7413 45.9339 15.9114 45.9306 16.0162C45.9253 16.1973 45.8982 16.3326 45.8492 16.4219C45.7819 16.5439 45.6648 16.6138 45.498 16.6318C45.4815 16.6334 45.465 16.6313 45.4497 16.6256C45.3787 16.5991 45.3424 16.5343 45.3408 16.4311C45.3367 16.1223 45.3345 15.8141 45.334 15.5066C45.3336 15.1994 45.3353 14.8915 45.3389 14.5827C45.3402 14.4795 45.3763 14.4144 45.4472 14.3875C45.4625 14.3819 45.4791 14.3798 45.4956 14.3814C45.6624 14.3989 45.7795 14.4687 45.8468 14.5906C45.8961 14.68 45.9237 14.815 45.9294 14.9957C45.933 15.1005 45.9349 15.2706 45.9349 15.506ZM45.4093 14.486L45.4056 16.5332C45.4056 16.539 45.4066 16.5447 45.4088 16.5501C45.4109 16.5554 45.4141 16.5603 45.4181 16.5644C45.4222 16.5685 45.427 16.5717 45.4323 16.5739C45.4376 16.5762 45.4433 16.5773 45.4491 16.5773H45.4552C45.5566 16.5775 45.6539 16.5354 45.7258 16.4603C45.7976 16.3853 45.838 16.2834 45.8382 16.1772L45.8407 14.8446C45.8407 14.7919 45.8309 14.7398 45.8118 14.6911C45.7926 14.6425 45.7645 14.5982 45.7291 14.561C45.6936 14.5237 45.6515 14.4941 45.6052 14.4739C45.5588 14.4537 45.5091 14.4433 45.4589 14.4432H45.4527C45.4413 14.4432 45.4304 14.4477 45.4222 14.4557C45.4141 14.4637 45.4095 14.4746 45.4093 14.486Z" fill="#02152C" fill-opacity="0.996"/>
<path id="Vector_13" d="M34.593 16.5559C34.6126 16.5391 34.6224 16.5224 34.6224 16.5057C34.6187 15.6373 34.622 14.9918 34.6322 14.5692C34.6326 14.5508 34.6281 14.5327 34.6192 14.5166C34.6103 14.5005 34.5972 14.4871 34.5814 14.4777C34.5656 14.4684 34.5475 14.4634 34.5291 14.4634C34.5107 14.4633 34.4927 14.4682 34.4768 14.4774L34.4052 14.5184C34.3578 14.5458 34.3184 14.5851 34.2907 14.6324C34.263 14.6797 34.2481 14.7334 34.2473 14.7882C34.242 15.2944 34.2422 15.786 34.248 16.2628C34.2496 16.3966 34.3379 16.492 34.5129 16.5491C34.5006 16.6071 34.4452 16.5975 34.3465 16.5204C34.2445 16.4412 34.1941 16.3093 34.1953 16.1245C34.1994 15.4103 34.2015 14.9687 34.2015 14.7999C34.2017 14.7306 34.22 14.6626 34.2547 14.6027C34.2894 14.5428 34.3392 14.493 34.3991 14.4585L34.4841 14.4095C34.5062 14.3968 34.5313 14.3903 34.5568 14.3906C34.5822 14.391 34.6071 14.3983 34.6288 14.4116C34.6505 14.425 34.6682 14.4439 34.68 14.4665C34.6918 14.4891 34.6972 14.5144 34.6958 14.5398C34.6807 14.8262 34.6748 15.4921 34.6781 16.5375C34.6781 16.5661 34.663 16.5797 34.6328 16.5785C34.6124 16.5777 34.5992 16.5701 34.593 16.5559Z" fill="#02152C" fill-opacity="0.996"/>
<path id="Vector_14" d="M9.98736 16.8197C9.97839 16.7271 9.97594 16.638 9.98002 16.5523C10.0016 16.12 9.84358 15.8128 9.50584 15.6309C9.38184 15.564 9.25253 15.5251 9.11792 15.514C8.95925 15.501 8.82261 15.5102 8.70799 15.5416C8.65456 15.5563 8.52444 15.6207 8.31763 15.7349C8.29945 15.745 8.28345 15.7585 8.27052 15.7747C8.10246 15.9868 8.01028 16.1787 7.99396 16.3504C7.94073 16.9182 8.29071 17.3796 8.85361 17.4579C9.31188 17.5221 9.74017 17.2945 9.92067 16.8619C9.93127 16.8367 9.95024 16.8318 9.97757 16.8473C9.90034 17.0511 9.76137 17.2264 9.57987 17.349C9.45004 17.4366 9.30231 17.4946 9.14739 17.519C8.99247 17.5433 8.83423 17.5333 8.68413 17.4897C8.42561 17.4147 8.20665 17.2443 8.07228 17.0137C7.9931 16.8782 7.94598 16.7266 7.93444 16.5701C7.92289 16.4136 7.94721 16.2563 8.00559 16.11C8.09351 15.8891 8.2545 15.7038 8.46216 15.5846C8.66982 15.4653 8.91183 15.4191 9.14852 15.4535C9.35205 15.4831 9.54202 15.5711 9.69508 15.7065C9.84813 15.8419 9.95759 16.019 10.01 16.2158C10.0565 16.3911 10.0561 16.5754 10.0088 16.7506C10.0023 16.7738 9.9951 16.7969 9.98736 16.8197Z" fill="#02152C" fill-opacity="0.996"/>
<path id="Vector_15" d="M24.3926 16.4878C24.3926 16.6249 24.3655 16.7608 24.3131 16.8875C24.2606 17.0142 24.1836 17.1293 24.0867 17.2263C23.9897 17.3233 23.8745 17.4002 23.7478 17.4527C23.6211 17.5052 23.4853 17.5322 23.3481 17.5322C23.0711 17.5322 22.8055 17.4222 22.6096 17.2263C22.4137 17.0304 22.3037 16.7648 22.3037 16.4878C22.3037 16.2108 22.4137 15.9451 22.6096 15.7493C22.8055 15.5534 23.0711 15.4434 23.3481 15.4434C23.4853 15.4434 23.6211 15.4704 23.7478 15.5229C23.8745 15.5753 23.9897 15.6523 24.0867 15.7493C24.1836 15.8462 24.2606 15.9614 24.3131 16.0881C24.3655 16.2148 24.3926 16.3506 24.3926 16.4878ZM24.3381 16.4246C24.3222 16.1645 24.2023 15.9214 24.0048 15.7489C23.8073 15.5763 23.5485 15.4884 23.2851 15.5045C23.0217 15.5207 22.7755 15.6394 22.6005 15.8348C22.4255 16.0301 22.3362 16.2859 22.3521 16.5461C22.368 16.8062 22.4879 17.0493 22.6853 17.2218C22.8828 17.3943 23.1417 17.4822 23.4051 17.4661C23.6684 17.45 23.9147 17.3312 24.0897 17.1359C24.2646 16.9406 24.354 16.6847 24.3381 16.4246Z" fill="#02152C" fill-opacity="0.996"/>
<path id="Vector_16" d="M9.98701 16.8202C9.98375 16.8296 9.98048 16.8388 9.97722 16.8478C9.94989 16.8323 9.93092 16.8371 9.92031 16.8624C9.73982 17.295 9.31152 17.5226 8.85325 17.4584C8.29035 17.3801 7.94038 16.9187 7.99361 16.3509C8.00992 16.1792 8.10211 15.9873 8.27016 15.7752C8.28309 15.759 8.2991 15.7455 8.31728 15.7354C8.52408 15.6212 8.6542 15.5568 8.70764 15.5421C8.82225 15.5107 8.9589 15.5015 9.11757 15.5145C9.25218 15.5256 9.38148 15.5645 9.50548 15.6314C9.84322 15.8133 10.0013 16.1205 9.97966 16.5528C9.97558 16.6385 9.97803 16.7276 9.98701 16.8202Z" fill="#004FA6" fill-opacity="0.996"/>
<path id="Vector_17" d="M23.405 17.4673C23.9534 17.4337 24.3711 16.9674 24.338 16.4257C24.3049 15.8841 23.8334 15.4721 23.285 15.5057C22.7366 15.5392 22.3188 16.0055 22.352 16.5472C22.3851 17.0889 22.8566 17.5008 23.405 17.4673Z" fill="#004FA6" fill-opacity="0.996"/>
<path id="Vector_18" d="M36.0713 38.7964C36.0852 38.7642 36.1054 38.7562 36.1319 38.7726C36.1407 38.7781 36.1476 38.7861 36.152 38.7955C36.1564 38.8049 36.158 38.8153 36.1567 38.8256C36.1553 38.8359 36.1511 38.8456 36.1444 38.8535C36.1377 38.8615 36.1289 38.8673 36.1191 38.8705C36.0395 38.8949 35.9569 38.9076 35.8713 38.9084C34.7165 38.919 33.4624 38.9237 32.109 38.9225C32.0168 38.9225 31.9652 38.8837 31.9542 38.8062C31.8302 37.9349 31.4431 37.2637 30.7929 36.7926C30.6914 36.7192 30.56 36.6388 30.3989 36.5516C30.2149 36.452 30.076 36.3896 29.9822 36.3643C29.8329 36.3239 29.742 36.295 29.7093 36.2774C29.6992 36.272 29.6907 36.2641 29.6844 36.2544C29.6782 36.2448 29.6746 36.2338 29.6739 36.2224C29.6465 35.7504 29.6445 35.4508 29.6677 35.3236C29.7281 34.9891 29.8852 34.7095 30.1389 34.4847C30.4044 34.2492 30.6283 34.1641 31.0022 34.1482C31.7456 34.117 32.1959 34.1372 32.8903 34.1305C33.0706 34.1284 33.2373 34.1374 33.3902 34.1574C33.4063 34.1594 33.4214 34.166 33.4338 34.1765C33.4462 34.1869 33.4552 34.2007 33.46 34.2161C33.491 34.3165 33.5316 34.4272 33.5817 34.5484C33.6692 34.7588 33.7806 34.8714 33.9348 35.0801C33.9849 35.1482 34.049 35.2139 34.1269 35.2771C34.3671 35.4725 34.5833 35.6126 34.7754 35.6974C35.0234 35.8067 35.3261 35.8665 35.6834 35.8767C36.6826 35.9061 37.6713 35.2777 38.0237 34.3318C38.306 33.5759 38.2226 32.845 37.7735 32.1389C37.5385 31.7694 37.2304 31.5046 36.849 31.3447C36.5875 31.2346 36.4317 31.1655 36.3815 31.1373C36.3735 31.1328 36.3669 31.1263 36.3623 31.1183C36.3576 31.1104 36.3552 31.1013 36.3552 31.092V30.8724C36.3552 30.8639 36.357 30.8556 36.3605 30.8479C36.364 30.8402 36.3691 30.8333 36.3754 30.8277C36.4978 30.7164 36.622 30.5597 36.7774 30.4153C37.1298 30.0878 37.3456 29.8702 37.4247 29.7625C37.6389 29.47 37.6128 29.2163 37.3464 29.0014C37.3303 28.9885 37.3115 28.9793 37.2913 28.9744C36.9809 28.8994 36.7476 28.993 36.5914 29.2553C36.5886 29.2609 36.5844 29.2659 36.5792 29.27L36.4323 29.3905C36.4287 29.3935 36.4243 29.3955 36.4197 29.3963C36.4151 29.3971 36.4103 29.3968 36.4058 29.3953C36.4013 29.3937 36.3972 29.3911 36.3939 29.3876C36.3907 29.3841 36.3883 29.3798 36.387 29.3752C36.3622 29.2749 36.3495 29.1976 36.3491 29.1433C36.343 28.3389 36.3432 27.689 36.3497 27.1934C36.3499 27.18 36.3544 27.167 36.3626 27.1564C36.3707 27.1459 36.3821 27.1382 36.395 27.1346C37.0693 26.9474 37.5557 26.533 37.8542 25.8914C37.9342 25.7196 37.9874 25.5159 38.0139 25.2801C38.025 25.1839 38.1002 25.1325 38.2397 25.1259C38.5832 25.1096 38.876 25.0625 39.1183 24.9846C39.1971 24.9593 39.3757 24.8649 39.6543 24.7013C40.1107 24.4339 40.4534 23.9549 40.5965 23.4776C40.6618 23.2602 40.6944 22.9433 40.6944 22.5268C40.6949 21.7918 40.6946 21.2503 40.6938 20.9024C40.6938 20.8888 40.6911 20.8754 40.6858 20.8629C40.6805 20.8504 40.6728 20.8391 40.663 20.8297C40.6533 20.8202 40.6417 20.8128 40.6291 20.8078C40.6164 20.8028 40.6028 20.8005 40.5892 20.8008C40.3575 20.8061 40.0602 20.8089 39.6971 20.8094C39.5874 20.8098 39.5342 20.8697 39.5374 20.9892C39.5431 21.203 39.545 21.709 39.5429 22.5072C39.5429 22.733 39.5044 22.9343 39.494 23.1246C39.4928 23.1433 39.4891 23.162 39.483 23.1803C39.3419 23.5918 39.0639 23.8608 38.649 23.9873C38.4186 24.0579 38.191 24.0913 37.9662 24.0876C37.9535 24.0874 37.941 24.084 37.93 24.0777C37.919 24.0714 37.9097 24.0624 37.9032 24.0515C37.7996 23.8823 37.7278 23.7713 37.6878 23.7187C37.0723 22.911 36.1386 22.6137 35.1682 22.8578C34.576 23.0065 34.032 23.4752 33.7585 23.9683C33.7419 23.9982 33.7176 24.023 33.6881 24.0403C33.6586 24.0577 33.6251 24.0668 33.5909 24.0668H26.7076C26.6713 24.0668 26.6364 24.0524 26.6107 24.0267C26.585 24.001 26.5706 23.9661 26.5706 23.9298V22.1407C26.5706 22.125 26.5766 22.11 26.5875 22.0988C26.5984 22.0875 26.6132 22.0811 26.6287 22.0808C27.5383 22.0624 28.4785 22.0616 29.4493 22.0783C29.6247 22.0812 29.7656 22.0233 29.8721 21.9046C30.0907 21.6602 30.1185 21.3945 29.9553 21.1073C29.8091 20.8497 29.5552 20.8014 29.2431 20.8014C27.8191 20.8018 26.9605 20.8061 26.6672 20.8142C26.6539 20.8146 26.6405 20.8122 26.6281 20.8074C26.6156 20.8025 26.6043 20.7952 26.5947 20.7859C26.5851 20.7766 26.5775 20.7655 26.5723 20.7533C26.5671 20.741 26.5644 20.7278 26.5645 20.7145V17.8859C26.5645 17.8665 26.5721 17.8478 26.5858 17.834C26.5994 17.8203 26.618 17.8125 26.6373 17.8125H29.59C29.5953 17.8125 29.6005 17.8117 29.6053 17.8101C29.9692 17.6747 30.1128 17.4291 30.0361 17.0734C29.9932 16.874 29.8731 16.7175 29.6757 16.6041C29.6296 16.5776 29.5548 16.5693 29.4511 16.579C29.3116 16.5921 29.1942 16.5925 29.0987 16.5803C29.0518 16.5746 29.0108 16.577 28.9757 16.5876C28.9231 16.6035 28.8754 16.5766 28.8105 16.5766C27.8797 16.5766 27.2199 16.5766 26.8312 16.5766C26.8175 16.5766 26.8039 16.5732 26.7914 16.5668L26.6984 16.5185C26.7368 16.5075 26.7649 16.502 26.7829 16.502C27.5791 16.5036 28.4728 16.5044 29.464 16.5044C29.6157 16.5038 29.7956 16.5637 29.9045 16.6855C30.2992 17.126 30.1621 17.7275 29.5619 17.8823C29.559 17.8831 29.556 17.8835 29.5527 17.8835H26.6532C26.6478 17.8835 26.6427 17.8856 26.6389 17.8892C26.6351 17.8929 26.633 17.8979 26.633 17.9031V20.6882C26.633 20.6973 26.6348 20.7062 26.6383 20.7146C26.6417 20.7229 26.6468 20.7305 26.6533 20.7369C26.6597 20.7433 26.6673 20.7483 26.6757 20.7517C26.6841 20.7551 26.6931 20.7568 26.7021 20.7567C27.3013 20.7506 28.1914 20.75 29.3722 20.7549C29.6635 20.7561 29.8978 20.8455 30.0281 21.1085C30.2049 21.4646 30.0875 21.8874 29.7473 22.0716C29.6845 22.1054 29.6119 22.1228 29.5295 22.1236C28.6496 22.1309 27.6958 22.1309 26.6679 22.1236C26.663 22.1235 26.6581 22.1244 26.6536 22.1262C26.6491 22.128 26.645 22.1307 26.6415 22.1341C26.638 22.1376 26.6353 22.1416 26.6334 22.1461C26.6315 22.1506 26.6305 22.1554 26.6305 22.1603V23.9775C26.6305 23.9854 26.6337 23.9931 26.6393 23.9987C26.6449 24.0043 26.6526 24.0075 26.6605 24.0075H33.616C33.6285 24.0075 33.6408 24.0045 33.6518 23.9987C33.6629 23.993 33.6724 23.9846 33.6796 23.9744C33.7645 23.8545 33.8356 23.755 33.8932 23.6759C34.2684 23.1595 34.7783 22.8488 35.4228 22.744C35.736 22.693 36.0495 22.7055 36.3632 22.7813C36.9648 22.927 37.4425 23.2592 37.7961 23.778C37.8271 23.8241 37.8516 23.8786 37.8695 23.9414C37.8744 23.9583 37.8843 23.9733 37.8979 23.9845C37.9114 23.9956 37.928 24.0024 37.9454 24.0038C38.3144 24.035 38.731 23.9567 39.0223 23.7321C39.3278 23.4968 39.4836 23.1644 39.4897 22.7348C39.4971 22.2131 39.4979 21.5623 39.4922 20.7824C39.4922 20.7733 39.4958 20.7646 39.5022 20.7582C39.5086 20.7518 39.5173 20.7482 39.5264 20.7482H40.7152C40.7273 20.7482 40.7389 20.7529 40.7475 20.7614C40.7561 20.7699 40.761 20.7814 40.7611 20.7934C40.7677 21.38 40.7681 22.0012 40.7624 22.6571C40.7599 22.9325 40.7314 23.1717 40.6767 23.3748C40.5201 23.9593 40.206 24.4103 39.7345 24.7276C39.701 24.7501 39.587 24.8143 39.3924 24.9204C39.2762 24.9836 39.1558 25.0333 39.0314 25.0696C38.75 25.1516 38.4692 25.1973 38.1889 25.2067C38.1552 25.2079 38.1231 25.2214 38.0988 25.2447C38.0744 25.2679 38.0595 25.2992 38.0568 25.3327C38.0356 25.5934 37.9585 25.843 37.8255 26.0816C37.5192 26.6294 37.0582 26.9957 36.4427 27.1805C36.4288 27.1846 36.4166 27.1931 36.4079 27.2048C36.3991 27.2165 36.3944 27.2307 36.3944 27.2454V29.3146C36.3943 29.3177 36.3952 29.3208 36.3968 29.3233C36.3985 29.3259 36.4009 29.328 36.4038 29.3291C36.4066 29.3303 36.4098 29.3306 36.4128 29.33C36.4158 29.3294 36.4186 29.3279 36.4207 29.3256L36.7603 28.9861C36.7736 28.9727 36.7892 28.9623 36.8062 28.9555C37.1492 28.816 37.4064 28.8927 37.5777 29.1855C37.5883 29.2038 37.5965 29.2233 37.6022 29.2437C37.6682 29.477 37.6077 29.6875 37.4204 29.8751C37.0888 30.2067 36.9089 30.3848 36.8808 30.4092C36.6748 30.5887 36.5302 30.7335 36.447 30.8436C36.4201 30.8799 36.4048 30.9513 36.4011 31.0578C36.4007 31.0675 36.4034 31.0771 36.4086 31.0853C36.4139 31.0935 36.4215 31.0999 36.4305 31.1037C36.5859 31.1679 36.8949 31.2817 37.0656 31.3833C37.4123 31.5897 37.695 31.8813 37.9136 32.2582C38.2691 32.8701 38.3449 33.6826 38.0874 34.344C37.863 34.92 37.478 35.3499 36.9322 35.6338C36.4121 35.9042 35.8027 36.0296 35.2086 35.8883C34.4059 35.6966 33.8305 35.2177 33.4826 34.4517C33.4569 34.395 33.4412 34.342 33.4355 34.2926C33.4328 34.2691 33.4215 34.2474 33.4037 34.2317C33.386 34.216 33.3631 34.2074 33.3394 34.2076C32.7068 34.2108 32.1769 34.2096 31.7499 34.2039C31.171 34.1961 30.8119 34.2121 30.6724 34.2516C30.324 34.3512 30.0501 34.581 29.8507 34.9412C29.8026 35.0277 29.763 35.1635 29.732 35.3487C29.712 35.4686 29.7106 35.7557 29.7277 36.2101C29.728 36.2193 29.7313 36.2281 29.7371 36.2353C29.7428 36.2424 29.7507 36.2476 29.7595 36.2499C30.3289 36.4021 30.8013 36.6647 31.1766 37.038C31.6566 37.516 31.9308 38.1054 31.9989 38.8062C31.9995 38.8139 32.003 38.8211 32.0087 38.8263C32.0143 38.8315 32.0218 38.8344 32.0295 38.8344C33.3649 38.8278 34.6898 38.8276 36.004 38.8337C36.0191 38.8337 36.0316 38.8303 36.0413 38.8233C36.052 38.816 36.0619 38.807 36.0713 38.7964Z" fill="#02152C" fill-opacity="0.996"/>
<path id="Vector_19" d="M41.6502 17.4316C41.6503 17.4909 41.6387 17.5497 41.6161 17.6045C41.5935 17.6593 41.5604 17.7091 41.5185 17.7511C41.4767 17.7932 41.4269 17.8265 41.3722 17.8493C41.3175 17.8721 41.2588 17.8839 41.1995 17.884L38.9222 17.8879C38.8024 17.8881 38.6875 17.8408 38.6027 17.7562C38.5178 17.6717 38.4701 17.5569 38.4698 17.4372L38.4697 17.3723C38.4696 17.313 38.4812 17.2543 38.5038 17.1995C38.5264 17.1446 38.5596 17.0948 38.6014 17.0528C38.6433 17.0108 38.693 16.9775 38.7477 16.9547C38.8025 16.9319 38.8612 16.9201 38.9205 16.92L41.1978 16.916C41.3175 16.9158 41.4325 16.9632 41.5173 17.0477C41.6021 17.1322 41.6499 17.247 41.6501 17.3668L41.6502 17.4316ZM41.6012 17.3693C41.6011 17.3172 41.5907 17.2657 41.5707 17.2176C41.5507 17.1696 41.5214 17.1259 41.4846 17.0892C41.4477 17.0524 41.4039 17.0233 41.3558 17.0034C41.3076 16.9836 41.2561 16.9734 41.204 16.9735L38.9096 16.9775C38.8575 16.9776 38.806 16.988 38.7579 17.008C38.7098 17.028 38.6662 17.0573 38.6294 17.0941C38.5927 17.131 38.5635 17.1748 38.5437 17.2229C38.5239 17.271 38.5137 17.3226 38.5138 17.3747L38.5139 17.431C38.514 17.483 38.5243 17.5346 38.5443 17.5827C38.5643 17.6307 38.5936 17.6744 38.6305 17.7111C38.6674 17.7479 38.7111 17.777 38.7593 17.7968C38.8074 17.8167 38.859 17.8269 38.9111 17.8268L41.2055 17.8228C41.2575 17.8227 41.3091 17.8123 41.3571 17.7923C41.4052 17.7723 41.4489 17.743 41.4856 17.7061C41.5224 17.6693 41.5515 17.6255 41.5713 17.5774C41.5912 17.5292 41.6013 17.4777 41.6013 17.4256L41.6012 17.3693Z" fill="#02152C" fill-opacity="0.996"/>
<path id="Vector_20" d="M41.2046 16.9728L38.9101 16.9768C38.6912 16.9772 38.514 17.155 38.5144 17.374L38.5145 17.4303C38.5148 17.6493 38.6927 17.8265 38.9116 17.8261L41.2061 17.8221C41.425 17.8217 41.6022 17.6439 41.6018 17.4249L41.6017 17.3686C41.6014 17.1497 41.4235 16.9725 41.2046 16.9728Z" fill="#004FA6" fill-opacity="0.996"/>
<path id="Vector_21" d="M15.3237 25.0829C15.3191 25.0691 15.3103 25.0572 15.2986 25.0488C15.2868 25.0403 15.2727 25.0358 15.2583 25.0357H12.3563C12.3431 25.0358 12.3302 25.0399 12.3195 25.0476C12.3087 25.0553 12.3006 25.0661 12.2963 25.0786C12.1307 25.5623 11.9333 26.1471 11.704 26.8327C11.6539 26.9828 11.5258 27.0975 11.3198 27.1766C11.3117 27.1798 11.3032 27.1815 11.2947 27.1815H9.89053C9.87158 27.1815 9.85301 27.1775 9.83607 27.1699C9.48365 27.0102 9.46713 26.7293 9.59317 26.4032C9.7702 25.9472 10.0492 25.1861 10.4302 24.1198C10.894 22.8227 11.7799 20.4977 12.4028 18.6817C12.5392 18.2822 12.6634 18.1023 13.0972 18.1035C13.4129 18.1039 13.9071 18.1049 14.5797 18.1066C14.8691 18.1072 15.049 18.3011 15.1512 18.5802C16.0543 21.0585 16.5195 22.3336 16.5468 22.4054C16.8103 23.1066 17.0677 23.811 17.319 24.5187C17.4205 24.8055 17.5482 25.1512 17.702 25.5558C17.8627 25.98 17.9855 26.3276 18.0703 26.5984C18.1621 26.8905 18.0736 27.0811 17.8048 27.1705C17.7869 27.1762 17.7686 27.1792 17.7503 27.1797C17.2302 27.187 16.7383 27.1858 16.2745 27.176C16.2178 27.1748 16.1365 27.127 16.0304 27.0328C15.9651 26.9749 15.9046 26.8576 15.8487 26.681C15.6782 26.1438 15.5032 25.6111 15.3237 25.0829ZM12.3128 24.9941H15.2472C15.2775 24.9941 15.3071 25.0036 15.3317 25.0213C15.3563 25.039 15.3747 25.0639 15.3843 25.0926C15.5748 25.6645 15.7435 26.1801 15.8903 26.6394C15.936 26.7822 15.9715 26.8731 15.9968 26.9123C16.1032 27.0756 16.255 27.1246 16.4764 27.1197C16.9272 27.1099 17.2888 27.1081 17.5612 27.1142C17.8396 27.1197 18.0581 27.0622 18.0581 26.7605C18.0581 26.7399 18.0548 26.7196 18.0483 26.7006C17.8916 26.2384 17.7344 25.8006 17.5765 25.3869C17.5435 25.3001 17.3836 24.8695 17.0969 24.0953C16.7118 23.0568 16.3551 22.0785 16.0267 21.1603C15.9672 20.9935 15.9358 20.9052 15.9325 20.8954C15.8799 20.7318 15.8069 20.5326 15.7135 20.2976C15.6425 20.1189 15.5703 19.9197 15.4969 19.6998C15.4104 19.44 15.3245 19.1926 15.2393 18.9577C15.1932 18.8304 15.1422 18.6956 15.0863 18.5532C15.008 18.353 14.8781 18.2243 14.6966 18.1672C14.6795 18.1619 14.6618 18.1592 14.644 18.1592C13.8065 18.1678 13.305 18.17 13.1394 18.1659C12.861 18.158 12.6371 18.2057 12.5466 18.4651C11.8984 20.3284 11.4365 21.6031 11.1607 22.2892C11.0861 22.4739 11.0445 22.6728 10.9631 22.8588C10.9158 22.9673 10.8628 23.1088 10.804 23.2834C10.7424 23.4662 10.6457 23.7315 10.514 24.0794C10.4341 24.2907 10.3398 24.5565 10.2313 24.8767C10.1069 25.2438 9.92683 25.733 9.69106 26.3445C9.56258 26.6767 9.48059 26.9826 9.87523 27.1087C9.88701 27.1123 9.89915 27.1144 9.91133 27.1148L11.277 27.1197C11.2839 27.1197 11.2907 27.1187 11.2972 27.1166C11.4917 27.0628 11.617 26.9472 11.6728 26.7697C11.9168 25.9976 12.1121 25.4181 12.259 25.0315C12.2631 25.0205 12.2705 25.0111 12.2801 25.0044C12.2897 24.9977 12.3011 24.9941 12.3128 24.9941Z" fill="#02152C" fill-opacity="0.996"/>
<path id="Vector_22" d="M21.0797 26.6242C21.0798 26.6973 21.0655 26.7696 21.0377 26.8371C21.0099 26.9047 20.969 26.966 20.9175 27.0178C20.8659 27.0695 20.8047 27.1106 20.7372 27.1386C20.6698 27.1667 20.5975 27.1812 20.5245 27.1814L19.5994 27.183C19.4519 27.1832 19.3103 27.1249 19.2058 27.0208C19.1013 26.9166 19.0425 26.7753 19.0422 26.6278L19.0283 18.6603C19.0282 18.5873 19.0425 18.5149 19.0703 18.4474C19.0981 18.3799 19.139 18.3185 19.1905 18.2668C19.2421 18.215 19.3033 18.174 19.3708 18.1459C19.4382 18.1178 19.5105 18.1033 19.5835 18.1032L20.5086 18.1016C20.6561 18.1013 20.7977 18.1597 20.9022 18.2638C21.0067 18.3679 21.0655 18.5093 21.0658 18.6568L21.0797 26.6242ZM21.0115 18.6298C21.0115 18.506 20.9624 18.3872 20.8748 18.2997C20.7873 18.2121 20.6685 18.1629 20.5447 18.1629H19.5719C19.448 18.1629 19.3293 18.2121 19.2418 18.2997C19.1542 18.3872 19.105 18.506 19.105 18.6298V26.6425C19.105 26.7663 19.1542 26.8851 19.2418 26.9726C19.3293 27.0602 19.448 27.1094 19.5719 27.1094H20.5447C20.6685 27.1094 20.7873 27.0602 20.8748 26.9726C20.9624 26.8851 21.0115 26.7663 21.0115 26.6425V18.6298Z" fill="#02152C" fill-opacity="0.996"/>
<path id="Vector_23" d="M12.2609 25.0314C12.114 25.4181 11.9186 25.9975 11.6747 26.7697C11.6188 26.9471 11.4936 27.0628 11.299 27.1166C11.2925 27.1186 11.2857 27.1197 11.2788 27.1197L9.9132 27.1148C9.90102 27.1144 9.88887 27.1123 9.8771 27.1087C9.48245 26.9826 9.56444 26.6767 9.69293 26.3445C9.92869 25.733 10.1088 25.2437 10.2332 24.8766C10.3417 24.5564 10.4359 24.2907 10.5159 24.0794C10.6476 23.7315 10.7443 23.4661 10.8059 23.2834C10.8646 23.1088 10.9176 22.9673 10.965 22.8588C11.0463 22.6728 11.0879 22.4739 11.1626 22.2891C11.4383 21.6031 11.9003 20.3284 12.5484 18.4651C12.639 18.2057 12.8629 18.158 13.1413 18.1659C13.3069 18.17 13.8084 18.1677 14.6458 18.1592C14.6637 18.1592 14.6814 18.1619 14.6984 18.1671C14.88 18.2242 15.0099 18.3529 15.0882 18.5532C15.1441 18.6956 15.1951 18.8304 15.2412 18.9576C15.3264 19.1926 15.4123 19.44 15.4987 19.6998C15.5722 19.9197 15.6444 20.1189 15.7153 20.2976C15.8087 20.5325 15.8818 20.7318 15.9344 20.8954C15.9376 20.9051 15.969 20.9935 16.0286 21.1603C16.357 22.0785 16.7137 23.0568 17.0987 24.0953C17.3855 24.8695 17.5454 25.3 17.5784 25.3869C17.7363 25.8005 17.8935 26.2384 18.0501 26.7006C18.0566 26.7196 18.0599 26.7399 18.0599 26.7605C18.0599 27.0622 17.8415 27.1197 17.5631 27.1142C17.2906 27.108 16.929 27.1099 16.4783 27.1197C16.2568 27.1246 16.1051 27.0756 15.9986 26.9123C15.9733 26.8731 15.9378 26.7821 15.8922 26.6394C15.7453 26.1801 15.5767 25.6645 15.3862 25.0926C15.3765 25.0639 15.3581 25.0389 15.3335 25.0213C15.3089 25.0036 15.2794 24.9941 15.2491 24.9941H12.3147C12.303 24.9941 12.2916 24.9977 12.2819 25.0044C12.2723 25.011 12.265 25.0205 12.2609 25.0314ZM13.758 20.1697L13.7507 20.1868C13.7303 20.1807 13.716 20.1872 13.7079 20.2064C13.6703 20.2929 13.6369 20.3806 13.6075 20.4695C13.3289 21.3265 13.0461 22.1821 12.7589 23.0362C12.7169 23.1618 12.6955 23.2669 12.6946 23.3513L12.702 23.4235C12.7004 23.4782 12.7318 23.5051 12.7962 23.5043C13.4958 23.4977 14.1984 23.4937 14.904 23.492C14.9375 23.4916 14.9558 23.4749 14.9591 23.4419C14.9615 23.4153 14.955 23.3939 14.9395 23.3776C14.9277 23.3531 14.9226 23.3342 14.9242 23.3207C14.9475 23.3146 14.9524 23.2928 14.9389 23.2552C14.8484 23.0056 14.7957 22.8582 14.781 22.8129C14.5016 21.9432 14.2163 21.0754 13.9251 20.2095C13.9227 20.2023 13.9177 20.1962 13.9111 20.1923C13.9044 20.1885 13.8966 20.1872 13.889 20.1887C13.8767 20.1911 13.8637 20.1983 13.8498 20.2101L13.8039 20.1575C13.8088 20.1163 13.7905 20.0896 13.7489 20.0773C13.7421 20.0753 13.735 20.0755 13.7284 20.0778C13.7218 20.0801 13.7161 20.0844 13.712 20.0902C13.708 20.096 13.7058 20.1029 13.7058 20.1101C13.7059 20.1172 13.7081 20.1241 13.7121 20.1299C13.7244 20.1471 13.7397 20.1603 13.758 20.1697Z" fill="#004FA6" fill-opacity="0.996"/>
<path id="Vector_24" d="M20.5451 18.1631H19.5723C19.3145 18.1631 19.1055 18.3721 19.1055 18.6299V26.6427C19.1055 26.9005 19.3145 27.1095 19.5723 27.1095H20.5451C20.803 27.1095 21.012 26.9005 21.012 26.6427V18.6299C21.012 18.3721 20.803 18.1631 20.5451 18.1631Z" fill="#004FA6" fill-opacity="0.996"/>
<path id="Vector_25" d="M13.8032 20.1577L13.7573 20.17C13.7389 20.1606 13.7236 20.1473 13.7114 20.1302C13.7073 20.1244 13.7051 20.1174 13.7051 20.1103C13.7051 20.1032 13.7072 20.0963 13.7113 20.0905C13.7153 20.0847 13.721 20.0803 13.7276 20.078C13.7342 20.0757 13.7414 20.0756 13.7481 20.0776C13.7897 20.0898 13.8081 20.1165 13.8032 20.1577Z" fill="#02152C" fill-opacity="0.996"/>
<path id="Vector_26" d="M14.923 23.3201C14.9039 23.3197 14.89 23.3073 14.8814 23.2828C14.8431 23.1719 14.8049 23.0609 14.767 22.95C14.457 22.0375 14.1509 21.124 13.8486 20.2095C13.8625 20.1977 13.8756 20.1905 13.8878 20.1881C13.8954 20.1866 13.9033 20.1879 13.9099 20.1918C13.9165 20.1956 13.9215 20.2017 13.9239 20.2089C14.2151 21.0749 14.5005 21.9427 14.7799 22.8123C14.7945 22.8576 14.8472 23.005 14.9377 23.2547C14.9512 23.2922 14.9463 23.314 14.923 23.3201Z" fill="#02152C" fill-opacity="0.996"/>
<path id="Vector_27" d="M13.7475 20.1878C13.7373 20.2808 13.7165 20.3738 13.685 20.4668C13.2621 21.7219 12.9761 22.585 12.8272 23.0561C12.7877 23.1809 12.7424 23.2796 12.6914 23.3522C12.6922 23.2678 12.7136 23.1628 12.7557 23.0371C13.0428 22.183 13.3257 21.3274 13.6043 20.4704C13.6337 20.3815 13.6671 20.2938 13.7046 20.2073C13.7128 20.1882 13.7271 20.1816 13.7475 20.1878Z" fill="#02152C" fill-opacity="0.996"/>
<path id="Vector_28" d="M12.6993 23.4248C13.3927 23.4248 14.0855 23.4293 14.7777 23.4383C14.8691 23.4395 14.9221 23.4197 14.9368 23.3789C14.9523 23.3952 14.9588 23.4166 14.9564 23.4432C14.9531 23.4762 14.9348 23.4929 14.9013 23.4933C14.1957 23.495 13.493 23.499 12.7935 23.5056C12.7291 23.5064 12.6976 23.4795 12.6993 23.4248Z" fill="#02152C" fill-opacity="0.996"/>
<path id="Vector_29" d="M34.6414 24.7447C34.6994 24.4491 34.8779 24.1898 35.1377 24.0238C35.3975 23.8577 35.7172 23.7985 36.0266 23.8592C36.1798 23.8893 36.3258 23.9478 36.4564 24.0316C36.5869 24.1154 36.6994 24.2227 36.7875 24.3474C36.8755 24.4722 36.9373 24.6119 36.9694 24.7586C37.0015 24.9053 37.0033 25.0561 36.9746 25.2024C36.9166 25.498 36.7381 25.7573 36.4783 25.9233C36.2185 26.0894 35.8987 26.1486 35.5894 26.0879C35.4362 26.0578 35.2901 25.9993 35.1596 25.9155C35.029 25.8317 34.9165 25.7244 34.8285 25.5997C34.7405 25.4749 34.6786 25.3352 34.6465 25.1885C34.6144 25.0418 34.6127 24.891 34.6414 24.7447ZM34.705 24.7708C34.6528 25.0496 34.719 25.3387 34.8889 25.5746C35.0589 25.8105 35.3187 25.9737 35.6112 26.0285C35.9038 26.0832 36.205 26.025 36.4488 25.8665C36.6925 25.7081 36.8588 25.4624 36.911 25.1836C36.9631 24.9048 36.897 24.6157 36.727 24.3798C36.5571 24.144 36.2972 23.9807 36.0047 23.926C35.7122 23.8712 35.4109 23.9295 35.1672 24.0879C34.9234 24.2463 34.7572 24.492 34.705 24.7708Z" fill="#02152C" fill-opacity="0.996"/>
<path id="Vector_30" d="M5.06138 25.0038C4.46953 25.0376 3.77222 25.0488 2.96948 25.0374C2.90299 25.0362 2.75126 25.0462 2.51427 25.0674C2.36987 25.08 2.25423 25.1734 2.16735 25.3476C2.07925 25.5242 2.06252 25.718 2.11718 25.9289C2.12245 25.9487 2.1307 25.9675 2.14165 25.9845C2.30318 26.2301 2.53813 26.3404 2.8465 26.3156C3.02353 26.3017 3.22136 26.296 3.43999 26.2984C4.36633 26.309 4.9641 26.3141 5.23331 26.3137C5.32591 26.3137 5.42054 26.3204 5.51721 26.3339C5.52618 26.3353 5.53444 26.3397 5.54073 26.3463C5.54703 26.3529 5.55101 26.3615 5.55208 26.3706C5.58329 26.6411 5.5992 26.9923 5.58084 27.3098C5.5735 27.4367 5.5735 27.6127 5.58084 27.8378C5.5943 28.2673 5.57228 28.6553 5.58145 29.1527C5.58178 29.1754 5.57318 29.1972 5.55749 29.2136C5.5418 29.23 5.5203 29.2395 5.49763 29.2402C4.64023 29.2663 3.72083 29.2708 2.73943 29.2536C2.39516 29.2475 2.17959 29.4035 2.09271 29.7217C2.01928 29.9889 2.09454 30.2114 2.31848 30.3892C2.40903 30.461 2.49856 30.4969 2.58708 30.4969C4.19134 30.4981 5.1913 30.4965 5.58696 30.492C5.60129 30.4918 5.61524 30.4967 5.62633 30.5059C5.63742 30.5151 5.64493 30.528 5.64753 30.5422C5.74461 31.0773 5.99465 31.5426 6.39766 31.9378C6.93975 32.4701 7.59647 32.7275 8.3678 32.71C8.55013 32.7059 8.73919 32.7018 8.93499 32.6977C8.94206 32.6976 8.94909 32.6988 8.95569 32.7013C8.96228 32.7039 8.96831 32.7077 8.97342 32.7126C8.97853 32.7175 8.98264 32.7234 8.98549 32.7298C8.98834 32.7363 8.98989 32.7433 8.99005 32.7503C8.99658 33.146 8.9976 33.8486 8.99311 34.8582C8.99189 35.1769 9.14607 35.437 9.47769 35.5061C9.95004 35.604 10.3355 35.3678 10.3312 34.8496C10.33 34.6991 10.3314 33.9959 10.3355 32.7399C10.3355 32.7291 10.3398 32.7186 10.3475 32.711C10.3552 32.7033 10.3656 32.6989 10.3765 32.6989H13.1463C13.169 32.699 13.1909 32.7073 13.2079 32.7224C13.2248 32.7376 13.2355 32.7584 13.2381 32.7809C13.2597 32.9763 13.2701 33.1397 13.2693 33.271C13.2652 34.0921 13.2689 34.6569 13.2803 34.9652C13.2968 35.4106 13.7735 35.5973 14.165 35.4865C14.176 35.4833 14.1863 35.4783 14.1956 35.4718L14.3902 35.3287C14.4303 35.2993 14.4635 35.2615 14.4875 35.218C14.5114 35.1745 14.5257 35.1262 14.5291 35.0766C14.5454 34.8384 14.5491 34.6314 14.5401 34.4556C14.5138 33.9337 14.5444 33.6351 14.5456 32.981C14.5456 32.9406 14.5572 32.8586 14.5805 32.735C14.5822 32.7256 14.5872 32.717 14.5946 32.7109C14.602 32.7047 14.6113 32.7014 14.6209 32.7014H17.499C17.51 32.7014 17.5206 32.7058 17.5284 32.7136C17.5362 32.7214 17.5406 32.732 17.5406 32.743C17.5451 33.2875 17.5465 33.9628 17.5449 34.7688C17.5441 35.2469 17.7627 35.4981 18.2008 35.5226C18.4988 35.5397 18.8022 35.3758 18.8396 35.0588C18.8583 34.9006 18.8665 34.7817 18.864 34.7021C18.8428 34.0654 18.8479 33.4081 18.8793 32.7301C18.8796 32.7227 18.8828 32.7157 18.8882 32.7106C18.8935 32.7055 18.9007 32.7026 18.9081 32.7026H21.7721C21.7788 32.7026 21.7853 32.7039 21.7914 32.7065C21.7975 32.7091 21.803 32.7128 21.8076 32.7176C21.8122 32.7223 21.8159 32.7279 21.8183 32.7341C21.8207 32.7402 21.8219 32.7468 21.8217 32.7534C21.8042 33.5602 21.8064 34.2934 21.8284 34.953C21.8333 35.1113 21.9025 35.2501 22.0358 35.3697C22.1431 35.4659 22.273 35.5173 22.4256 35.5238C22.8055 35.5391 23.1359 35.358 23.1347 34.9377C23.1331 34.2377 23.1349 33.5311 23.1402 32.8176C23.1404 32.7898 23.1513 32.7631 23.1707 32.7432C23.1901 32.7232 23.2164 32.7115 23.2442 32.7106C23.4013 32.704 23.6789 32.6985 24.077 32.6941C24.3927 32.6904 24.8558 32.557 25.1538 32.4053C25.8032 32.0736 26.24 31.5507 26.4644 30.8365C26.5301 30.6268 26.5627 30.4186 26.5623 30.2118C26.5615 29.2777 26.5629 28.5076 26.5666 27.9015C26.5667 27.8748 26.5773 27.8493 26.5961 27.8305C26.6149 27.8116 26.6403 27.8008 26.6669 27.8005C27.7446 27.7875 28.5995 27.7866 29.2318 27.7981C29.5873 27.8042 29.8626 27.7601 30.0119 27.4322C30.0755 27.2919 30.0855 27.1524 30.0419 27.0137C29.9776 26.8081 29.7855 26.567 29.5542 26.5456C29.2263 26.5156 28.5777 26.5676 28.295 26.5646C27.8174 26.5605 27.2834 26.5544 26.6932 26.5462C26.6628 26.5459 26.6337 26.5336 26.6122 26.5119C26.5908 26.4903 26.5788 26.461 26.5788 26.4306V25.3831C26.5788 25.3814 26.5791 25.3797 26.5798 25.3782C26.5806 25.3766 26.5816 25.3753 26.583 25.3741C26.5843 25.373 26.5859 25.3722 26.5876 25.3718C26.5893 25.3713 26.5911 25.3712 26.5929 25.3715C26.6247 25.3768 26.6343 25.3486 26.6216 25.287C26.6209 25.2836 26.621 25.28 26.622 25.2767C26.623 25.2733 26.6248 25.2702 26.6272 25.2676C26.6297 25.265 26.6327 25.2631 26.6361 25.2619C26.6395 25.2607 26.6431 25.2603 26.6467 25.2607C26.6524 25.2615 26.6588 25.2638 26.6657 25.2675C26.653 25.2666 26.6428 25.2695 26.6351 25.276C26.6334 25.2776 26.632 25.2795 26.631 25.2816C26.6301 25.2837 26.6296 25.2859 26.6296 25.2883V26.441C26.6296 26.4554 26.6353 26.4693 26.6454 26.4795C26.6555 26.4897 26.6692 26.4954 26.6834 26.4954C28.1935 26.4962 29.1 26.4928 29.4031 26.485C29.6405 26.4793 29.8161 26.5503 29.9299 26.698C30.1909 27.0377 30.1885 27.3624 29.9225 27.672C29.8618 27.7426 29.7743 27.794 29.6601 27.8262C29.5968 27.8441 29.4949 27.8535 29.3541 27.8543C28.3613 27.8584 27.4623 27.8584 26.6571 27.8543C26.6541 27.8543 26.6511 27.8548 26.6484 27.8559C26.6456 27.857 26.643 27.8587 26.6409 27.8608C26.6388 27.8629 26.6371 27.8654 26.636 27.8682C26.6349 27.871 26.6344 27.874 26.6345 27.877C26.6382 29.1349 26.6373 29.8924 26.632 30.1494C26.6235 30.5711 26.5258 30.9631 26.339 31.3254C25.9816 32.0198 25.3184 32.5093 24.5671 32.6867C24.1516 32.7846 23.7661 32.7552 23.2412 32.7589C23.2315 32.7591 23.2222 32.763 23.2154 32.7698C23.2085 32.7767 23.2046 32.7859 23.2045 32.7956C23.2012 33.4274 23.1996 34.1429 23.1996 34.942C23.1996 35.1292 23.13 35.2828 22.9909 35.4027C22.8102 35.5585 22.5741 35.6058 22.2824 35.5446C22.0316 35.492 21.8629 35.326 21.7764 35.0466C21.7732 35.0352 21.7715 35.0235 21.7715 35.0117V32.8079C21.7715 32.7947 21.7662 32.7821 21.7568 32.7728C21.7474 32.7635 21.7347 32.7583 21.7214 32.7583H18.9766C18.962 32.7583 18.9479 32.7641 18.9375 32.7744C18.927 32.7847 18.9211 32.7987 18.9209 32.8134L18.902 35.0588C18.9016 35.0959 18.8928 35.1323 18.8763 35.1653C18.7931 35.3329 18.7115 35.4357 18.6315 35.4737C18.4863 35.543 18.3323 35.5746 18.1696 35.5685C17.7725 35.5538 17.4862 35.2687 17.4868 34.8777C17.4884 33.9759 17.4882 33.2843 17.4862 32.803C17.486 32.7914 17.4813 32.7803 17.4732 32.7722C17.4651 32.7641 17.4541 32.7595 17.4427 32.7595H14.6386C14.6328 32.7595 14.6269 32.7607 14.6215 32.7629C14.6161 32.7652 14.6112 32.7685 14.607 32.7726C14.6029 32.7767 14.5996 32.7817 14.5974 32.7871C14.5951 32.7925 14.594 32.7983 14.594 32.8042C14.5968 33.9186 14.6003 34.569 14.6044 34.7554C14.6097 34.9899 14.5856 35.1518 14.5322 35.2412C14.4202 35.4278 14.2256 35.5593 13.9913 35.5722C13.5565 35.5954 13.2958 35.3852 13.2093 34.9414C13.2085 34.9381 13.2081 34.9346 13.2081 34.931V32.803C13.2081 32.7913 13.2035 32.7801 13.1954 32.7718C13.1873 32.7635 13.1762 32.7589 13.1647 32.7589H10.4193C10.4086 32.7589 10.3982 32.7631 10.3906 32.7707C10.3829 32.7783 10.3785 32.7885 10.3783 32.7993C10.3767 32.8992 10.3783 33.5404 10.3832 34.7229C10.3844 34.973 10.353 35.1522 10.289 35.2607C10.1785 35.4463 10.0082 35.5485 9.77811 35.5673C9.41875 35.5962 9.16994 35.4873 9.03166 35.2406C8.95864 35.1104 8.92887 34.882 8.94233 34.5553C8.94396 34.5182 8.94457 33.9237 8.94416 32.7718C8.94417 32.7688 8.94356 32.7658 8.94238 32.763C8.94119 32.7603 8.93946 32.7578 8.93729 32.7557C8.93511 32.7537 8.93254 32.7521 8.92972 32.751C8.9269 32.75 8.92391 32.7496 8.92091 32.7497C8.63008 32.7685 8.31906 32.7654 7.98785 32.7406C7.56894 32.7087 7.16716 32.5676 6.78251 32.3172C6.14578 31.9019 5.75175 31.3192 5.60042 30.5691C5.59942 30.5636 5.59649 30.5587 5.59213 30.5551C5.58778 30.5515 5.58227 30.5496 5.57656 30.5495C4.93249 30.5524 4.08733 30.5532 3.04107 30.552C2.7172 30.552 2.53731 30.5471 2.50142 30.5373C2.33296 30.4916 2.19692 30.3794 2.09332 30.2008C1.89018 29.8508 2.08659 29.3521 2.45859 29.2328C2.53568 29.2084 2.73474 29.1973 3.05575 29.1998C3.82097 29.2059 4.62962 29.2082 5.48172 29.2065C5.49211 29.2065 5.50207 29.2023 5.50941 29.1949C5.51676 29.1874 5.52088 29.1773 5.52088 29.1668V26.4C5.52088 26.3975 5.52039 26.395 5.51944 26.3927C5.51848 26.3904 5.51709 26.3883 5.51533 26.3866C5.51356 26.3848 5.51147 26.3834 5.50917 26.3825C5.50687 26.3815 5.50441 26.381 5.50191 26.381C4.24233 26.3786 3.3319 26.3788 2.77063 26.3816C2.60584 26.3824 2.47878 26.3549 2.38945 26.299C2.03866 26.0792 1.94199 25.7716 2.09944 25.3764C2.16266 25.2177 2.26565 25.1059 2.40842 25.0411C2.49408 25.0019 2.64704 24.9809 2.8673 24.9781C3.59295 24.9691 4.32431 24.9776 5.06138 25.0038Z" fill="#02152C" fill-opacity="0.996"/>
<path id="Vector_31" d="M28.4673 36.2971C28.4959 36.2909 28.5093 36.274 28.5077 36.2463C28.4824 35.8335 28.4842 35.4731 28.5132 35.1652C28.5381 34.9025 28.6225 34.6253 28.7665 34.3336C29.0883 33.6826 29.6971 33.2262 30.4136 33.0531C30.5649 33.0168 30.7405 32.9982 30.9404 32.9974C31.589 32.9957 32.3721 32.9947 33.2899 32.9943C33.3116 32.9943 33.3328 32.9868 33.3498 32.9731C33.3668 32.9595 33.3787 32.9404 33.3835 32.9191C33.5805 32.0484 34.2695 31.3839 35.112 31.1465C35.1245 31.143 35.1357 31.1361 35.1445 31.1266C35.1532 31.1171 35.1591 31.1054 35.1615 31.0927C35.2135 30.8229 35.1046 30.7592 34.8948 30.5592C34.7993 30.4686 34.5226 30.2123 34.0645 29.7901C34.0467 29.7739 34.0324 29.7542 34.0223 29.732C33.8587 29.3714 33.9399 29.0964 34.2658 28.9072C34.2754 28.9016 34.2864 28.8986 34.2976 28.8986H34.6843C34.7104 28.8986 34.7357 28.9079 34.7559 28.9249L35.153 29.2669C35.1579 29.2712 35.1641 29.2738 35.1706 29.2745C35.1771 29.2752 35.1837 29.2739 35.1894 29.2708C35.1952 29.2677 35.1999 29.2629 35.2029 29.2571C35.2059 29.2513 35.207 29.2447 35.2062 29.2382C35.1866 29.0714 35.1766 28.9755 35.1762 28.9506C35.173 28.0855 35.1695 27.5079 35.1658 27.2179C35.1658 27.2152 35.1649 27.2126 35.1633 27.2104C35.1616 27.2082 35.1593 27.2065 35.1566 27.2056C34.619 27.0461 34.1995 26.7437 33.8981 26.2983C33.6831 25.9805 33.5563 25.6524 33.5175 25.3138C33.5165 25.3045 33.5121 25.2959 33.5052 25.2897C33.4983 25.2835 33.4894 25.2801 33.4802 25.2802H26.7529C26.8088 25.2659 26.8606 25.2636 26.9083 25.2734C26.9504 25.2816 26.9777 25.27 26.9903 25.2386C26.9916 25.2353 26.9937 25.2325 26.9966 25.2306C26.9994 25.2286 27.0028 25.2276 27.0062 25.2275H33.4869C33.5009 25.2275 33.5144 25.2323 33.5252 25.2411C33.536 25.2499 33.5434 25.2622 33.5463 25.2759C33.7127 26.1361 34.2762 26.9279 35.1677 27.1408C35.1781 27.1433 35.1874 27.1491 35.1943 27.1574C35.2011 27.1657 35.2051 27.1759 35.2056 27.1867C35.2244 27.5982 35.2348 28.0822 35.2368 28.6386C35.2376 28.7973 35.2468 28.9767 35.2643 29.177C35.2696 29.2333 35.2586 29.2875 35.2313 29.3398C35.2278 29.3464 35.2228 29.3522 35.2167 29.3567C35.2106 29.3612 35.2036 29.3642 35.1963 29.3655C35.1889 29.3669 35.1813 29.3666 35.1741 29.3645C35.1669 29.3625 35.1603 29.3588 35.1548 29.3538L34.7571 28.9935C34.7478 28.9854 34.737 28.9795 34.7253 28.9763C34.4475 28.909 34.1532 28.9176 34.0357 29.2009C33.9362 29.4395 33.987 29.65 34.1881 29.8323C34.4385 30.0591 34.7583 30.3562 35.1475 30.7238C35.2374 30.8088 35.3212 31.0352 35.2093 31.1625C35.1973 31.176 35.182 31.1858 35.1652 31.1906C34.5962 31.3586 34.1357 31.6764 33.7837 32.1439C33.6825 32.2785 33.6085 32.4069 33.5616 32.5293C33.5073 32.6721 33.4612 32.8142 33.4233 32.9558C33.4156 32.9838 33.3988 33.0085 33.3755 33.026C33.3523 33.0435 33.3239 33.0528 33.2948 33.0524C33.2463 33.0516 32.7682 33.0498 31.8606 33.0469C31.0999 33.0449 30.6345 33.0635 30.4644 33.1026C29.6396 33.2923 29.0039 33.827 28.7072 34.6249C28.5856 34.952 28.5322 35.2861 28.5469 35.6271C28.5587 35.8939 28.5615 36.1056 28.5554 36.2622C28.555 36.2717 28.5514 36.2807 28.545 36.2879C28.525 36.3115 28.4991 36.3146 28.4673 36.2971Z" fill="#02152C" fill-opacity="0.996"/>
<path id="Vector_32" d="M10.044 29.2153C10.044 29.4949 9.9329 29.7631 9.7352 29.9608C9.5375 30.1585 9.26935 30.2696 8.98976 30.2696C8.71016 30.2696 8.44202 30.1585 8.24432 29.9608C8.04662 29.7631 7.93555 29.4949 7.93555 29.2153C7.93555 28.9358 8.04662 28.6676 8.24432 28.4699C8.44202 28.2722 8.71016 28.1611 8.98976 28.1611C9.26935 28.1611 9.5375 28.2722 9.7352 28.4699C9.9329 28.6676 10.044 28.9358 10.044 29.2153ZM9.99671 29.2753C10.0132 29.0136 9.92339 28.756 9.74712 28.5591C9.57084 28.3622 9.3225 28.2422 9.05674 28.2255C8.79098 28.2088 8.52956 28.2967 8.32999 28.4699C8.13043 28.6432 8.00906 28.8875 7.9926 29.1492C7.97613 29.411 8.06591 29.6686 8.24219 29.8655C8.41847 30.0624 8.66681 30.1824 8.93257 30.1991C9.19833 30.2158 9.45975 30.1279 9.65932 29.9546C9.85888 29.7814 9.98025 29.537 9.99671 29.2753Z" fill="#02152C" fill-opacity="0.996"/>
<path id="Vector_33" d="M24.3904 29.2201C24.3904 29.3575 24.3633 29.4935 24.3107 29.6205C24.2581 29.7474 24.1811 29.8627 24.0839 29.9599C23.9868 30.0571 23.8714 30.1341 23.7445 30.1867C23.6176 30.2393 23.4815 30.2663 23.3441 30.2663C23.2067 30.2663 23.0707 30.2393 22.9437 30.1867C22.8168 30.1341 22.7014 30.0571 22.6043 29.9599C22.5071 29.8627 22.4301 29.7474 22.3775 29.6205C22.3249 29.4935 22.2979 29.3575 22.2979 29.2201C22.2979 28.9426 22.4081 28.6765 22.6043 28.4803C22.8005 28.2841 23.0666 28.1738 23.3441 28.1738C23.6216 28.1738 23.8877 28.2841 24.0839 28.4803C24.2801 28.6765 24.3904 28.9426 24.3904 29.2201ZM24.285 28.9036C24.2027 28.656 24.0242 28.4517 23.789 28.3355C23.5537 28.2193 23.2809 28.2008 23.0305 28.2841C22.9065 28.3253 22.7918 28.3903 22.6929 28.4753C22.594 28.5603 22.5128 28.6637 22.4539 28.7796C22.3951 28.8954 22.3598 29.0215 22.3501 29.1505C22.3403 29.2796 22.3563 29.4091 22.397 29.5317C22.4794 29.7793 22.6579 29.9836 22.8931 30.0998C23.1284 30.216 23.4012 30.2345 23.6516 30.1512C23.7756 30.11 23.8903 30.045 23.9892 29.96C24.0881 29.8749 24.1693 29.7716 24.2282 29.6557C24.287 29.5399 24.3223 29.4138 24.332 29.2848C24.3418 29.1557 24.3258 29.0262 24.285 28.9036Z" fill="#02152C" fill-opacity="0.996"/>
<path id="Vector_34" d="M8.93063 30.1997C9.48405 30.2345 9.96048 29.821 9.99477 29.276C10.0291 28.731 9.60822 28.2609 9.05479 28.2261C8.50137 28.1913 8.02494 28.6049 7.99065 29.1499C7.95636 29.6949 8.3772 30.1649 8.93063 30.1997Z" fill="#004FA6" fill-opacity="0.996"/>
<path id="Vector_35" d="M23.653 30.1517C24.1744 29.9783 24.458 29.4197 24.2864 28.9041C24.1149 28.3885 23.5532 28.1112 23.0319 28.2846C22.5105 28.458 22.2269 29.0166 22.3984 29.5322C22.57 30.0478 23.1316 30.3251 23.653 30.1517Z" fill="#004FA6" fill-opacity="0.996"/>
<path id="Vector_36" d="M37.0816 33.4915C37.0816 33.8368 36.9444 34.1679 36.7002 34.4121C36.456 34.6563 36.1249 34.7935 35.7795 34.7935C35.4342 34.7935 35.1031 34.6563 34.8589 34.4121C34.6147 34.1679 34.4775 33.8368 34.4775 33.4915C34.4775 33.1461 34.6147 32.815 34.8589 32.5708C35.1031 32.3266 35.4342 32.1895 35.7795 32.1895C36.1249 32.1895 36.456 32.3266 36.7002 32.5708C36.9444 32.815 37.0816 33.1461 37.0816 33.4915ZM37.0204 33.4915C37.0204 33.1625 36.8897 32.8471 36.6571 32.6145C36.4245 32.3819 36.1091 32.2513 35.7802 32.2513C35.4512 32.2513 35.1358 32.3819 34.9032 32.6145C34.6706 32.8471 34.5399 33.1625 34.5399 33.4915C34.5399 33.8204 34.6706 34.1358 34.9032 34.3684C35.1358 34.601 35.4512 34.7317 35.7802 34.7317C36.1091 34.7317 36.4245 34.601 36.6571 34.3684C36.8897 34.1358 37.0204 33.8204 37.0204 33.4915Z" fill="#02152C" fill-opacity="0.996"/>
<path id="Vector_37" d="M28.4098 36.3014C28.4159 36.3059 28.4166 36.3128 28.4117 36.3222C28.4105 36.3247 28.4088 36.3269 28.4067 36.3287C28.4046 36.3305 28.4021 36.3318 28.3994 36.3326C27.9605 36.4782 27.5934 36.6695 27.2981 36.9065C26.8564 37.2605 26.5553 37.718 26.395 38.2789C26.187 39.0082 26.2977 39.6702 26.6618 40.3237C26.9179 40.7825 27.2751 41.1348 27.7331 41.3803C27.7804 41.406 27.9022 41.4599 28.0984 41.5418C28.6423 41.7694 29.2817 41.8055 29.8097 41.6758C30.7108 41.4556 31.3569 40.9351 31.7481 40.1144C31.7636 40.0817 31.7881 40.054 31.8187 40.0348C31.8492 40.0155 31.8846 40.0053 31.9206 40.0055C32.5504 40.0071 32.9344 40.0069 33.0727 40.0049C33.0931 40.0045 33.1141 40.0043 33.1357 40.0043C34.5662 40.0079 35.5448 40.013 36.0714 40.0196C36.0807 40.0197 36.09 40.0217 36.0985 40.0257C36.107 40.0296 36.1146 40.0352 36.1208 40.0423C36.1269 40.0493 36.1316 40.0576 36.1343 40.0665C36.1371 40.0755 36.138 40.0849 36.1368 40.0942C36.1356 40.1048 36.1187 40.1128 36.0861 40.1181C36.0922 40.1152 36.094 40.1071 36.0916 40.0936C36.0906 40.0888 36.088 40.0845 36.0842 40.0813C36.0804 40.0782 36.0757 40.0765 36.0708 40.0765H31.89C31.8707 40.0764 31.8517 40.082 31.8355 40.0925C31.8192 40.1031 31.8062 40.1181 31.7982 40.1358C31.6196 40.5368 31.3634 40.8719 31.0298 41.1411C30.6096 41.4792 30.132 41.6915 29.5968 41.778C29.0792 41.8616 28.5626 41.8004 28.047 41.5945C27.3409 41.3126 26.8235 40.828 26.4948 40.1407C26.3491 39.8356 26.2655 39.5336 26.2439 39.2346C26.2145 38.8203 26.2696 38.389 26.4274 38.0035C26.7758 37.1502 27.4111 36.5847 28.3333 36.3069C28.357 36.2999 28.3825 36.2981 28.4098 36.3014Z" fill="#02152C" fill-opacity="0.996"/>
<path id="Vector_38" d="M28.65 37.4151C28.8565 37.3512 29.0738 37.3293 29.2894 37.3507C29.5051 37.3721 29.7149 37.4364 29.9069 37.5399C30.0989 37.6433 30.2694 37.784 30.4085 37.9537C30.5477 38.1235 30.6528 38.3191 30.7178 38.5293C30.7829 38.7396 30.8067 38.9603 30.7878 39.179C30.7689 39.3977 30.7077 39.61 30.6078 39.8039C30.5078 39.9977 30.371 40.1693 30.2051 40.3088C30.0392 40.4483 29.8476 40.553 29.6411 40.6169C29.4347 40.6808 29.2174 40.7027 29.0017 40.6813C28.7861 40.6599 28.5763 40.5956 28.3842 40.4922C28.1922 40.3887 28.0218 40.2481 27.8826 40.0783C27.7435 39.9085 27.6384 39.7129 27.5733 39.5027C27.5082 39.2925 27.4845 39.0717 27.5034 38.853C27.5222 38.6343 27.5834 38.422 27.6834 38.2282C27.7834 38.0343 27.9202 37.8627 28.0861 37.7232C28.2519 37.5837 28.4435 37.479 28.65 37.4151ZM28.5236 37.5373C28.137 37.699 27.8316 38.0101 27.6745 38.4022C27.5174 38.7943 27.5214 39.2353 27.6857 39.6281C27.85 40.0209 28.1612 40.3334 28.5507 40.4969C28.9402 40.6603 29.3762 40.6613 29.7627 40.4996C30.1492 40.3379 30.4547 40.0268 30.6118 39.6347C30.7689 39.2426 30.7649 38.8016 30.6005 38.4088C30.4362 38.016 30.1251 37.7035 29.7356 37.5401C29.3461 37.3766 28.9101 37.3757 28.5236 37.5373Z" fill="#02152C" fill-opacity="0.996"/>
<path id="Vector_39" d="M36.0275 40.2027L35.8433 40.4462C35.8413 40.4486 35.8396 40.4513 35.8384 40.4541C35.7324 40.6805 35.7581 40.869 35.9155 41.0195C36.1451 41.2385 36.3889 41.2432 36.6467 41.0335C37.099 40.666 37.5108 40.3085 37.882 39.961C37.9717 39.8774 38.0398 39.8099 38.0863 39.7585C38.0997 39.7439 38.1108 39.7274 38.1194 39.7095C38.2189 39.5125 38.1783 39.33 37.9976 39.1619C37.7504 38.9319 37.5155 38.7459 37.2383 38.4803C36.9095 38.1658 36.6491 37.9433 36.457 37.8128C36.3758 37.7573 36.2575 37.7528 36.1021 37.7993C36.0038 37.8291 35.9055 37.9129 35.8072 38.0508C35.7971 38.065 35.7896 38.0807 35.7852 38.0973C35.7124 38.3708 35.839 38.5317 36.0244 38.7024C36.0266 38.7044 36.0282 38.707 36.0291 38.7098C36.03 38.7126 36.0301 38.7156 36.0295 38.7185C36.0289 38.7214 36.0275 38.7241 36.0256 38.7263C36.0236 38.7285 36.0211 38.7302 36.0183 38.7312L35.9975 38.7385C35.6402 38.4662 35.6059 38 36.0299 37.7724C36.2184 37.6717 36.3993 37.6874 36.5726 37.8195C36.7288 37.9382 36.9611 38.1432 37.2695 38.4344C37.5632 38.7116 37.7939 38.9049 38.0668 39.1588C38.2348 39.3151 38.2756 39.497 38.1891 39.7046C38.1638 39.7654 38.0918 39.8508 37.9731 39.961C37.7521 40.1674 37.3382 40.5286 36.7317 41.0446C36.4556 41.2799 36.1943 41.3028 35.9479 41.1131C35.5931 40.8402 35.6879 40.4284 36.0275 40.2027Z" fill="#02152C" fill-opacity="0.996"/>
</g>
</g>
</g>
</svg>
